<svg viewBox="0 0 570 983" version="1.1" xmlns="http://www.w3.org/2000/svg" xmlns:xlink="http://www.w3.org/1999/xlink">
    <g id="Landing" stroke="none" stroke-width="1" fill="none" fill-rule="evenodd" opacity="0.091978561">
        <g id="Artboard" transform="translate(-1430.000000, -1263.000000)" fill-rule="nonzero">
            <g id="Group" transform="translate(1430.000000, 1263.000000)">
                <path d="M488.986611,983 C759.065958,983 978,762.940639 978,491.5 C978,220.059361 759.065958,0 488.986611,0 C218.907264,0 0,220.059361 0,491.5 C0.026777647,762.967554 218.934042,983 488.986611,983 Z" id="Shape" fill="#006F53"></path>
                <path d="M354.488535,969.729522 L352.345394,600.121151 C352.345394,600.121151 341.844004,595.976715 342.353,617.883021 C342.353,617.883021 340.772433,623.077023 331.315824,620.493478 C331.315824,620.493478 327.592117,621.516131 327.592117,624.664826 C327.592117,627.786609 310.688093,623.615261 311.277457,609.540325 C311.277457,609.540325 302.276265,612.635196 301.231484,602.75852 C301.231484,602.75852 301.231484,596.999368 310.714882,592.828019 C310.714882,592.828019 338.682871,595.438476 340.799223,586.584453 C340.799223,586.584453 345.514133,577.703518 328.127902,582.413105 L316.528152,581.874866 C316.528152,581.874866 312.322238,578.753083 309.134316,581.874866 C309.134316,581.874866 299.650917,596.999368 285.961605,583.435758 C285.961605,583.435758 265.923237,578.753083 285.961605,570.410386 C285.961605,570.410386 292.257081,569.360821 290.167519,563.628581 C290.167519,563.628581 299.141921,554.209408 304.392616,554.747646 C304.392616,554.747646 305.437398,548.50408 313.902804,550.549386 C313.902804,550.549386 321.269851,544.30582 340.263437,547.454515 C340.263437,547.454515 346.049918,538.035341 330.75325,540.645798 C330.75325,540.645798 323.412992,549.526733 315.992367,544.30582 C315.992367,544.30582 305.437398,555.824123 292.819656,546.40495 C292.819656,546.40495 278.594558,549.015406 279.103554,537.524015 C279.103554,537.524015 266.994808,545.355385 269.620155,519.789056 C269.620155,519.789056 222.685369,530.230883 228.498639,506.736773 C228.498639,506.736773 229.007635,479.071315 275.406636,473.312163 C275.406636,473.312163 283.845253,472.262598 286.470601,466.530358 C286.470601,466.530358 297.507776,465.992119 311.277457,473.823489 C311.277457,473.823489 320.22507,474.334816 326.03834,492.608013 C331.82482,510.881209 341.308219,493.657578 339.218656,492.096686 C339.218656,492.096686 326.03834,484.803555 330.75325,470.674794 C330.75325,470.674794 311.786453,481.143533 315.483371,460.771206 C315.483371,460.771206 310.232675,458.672076 308.652109,453.478075 C308.652109,453.478075 307.044753,439.376226 314.438589,434.666639 C314.438589,434.666639 317.090726,438.326661 317.599722,424.224813 C317.599722,424.224813 329.708468,420.564791 321.832426,413.271659 C321.832426,413.271659 312.349027,406.462943 310.205886,418.465661 C310.205886,418.465661 291.2123,426.835269 300.186702,402.802921 C300.186702,402.802921 287.515382,423.148336 276.478206,410.096052 L271.200722,410.096052 C271.200722,410.096052 247.465436,421.076118 257.48462,390.261964 C257.48462,390.261964 236.401471,417.927422 242.187952,382.968832 C242.187952,382.968832 257.48462,359.986049 291.2123,372.527006 C291.2123,372.527006 304.392616,368.866984 318.135508,376.187028 C318.135508,376.187028 322.314632,380.358376 332.896391,380.358376 C332.896391,380.358376 337.075515,375.137462 329.172683,374.087897 C329.172683,374.087897 305.999972,376.187028 315.456581,358.963396 C315.456581,358.963396 321.269851,349.571134 319.180289,344.350221 C319.180289,344.350221 304.955191,348.010243 298.579347,333.397068 C298.579347,333.397068 294.373433,326.615263 289.604944,328.176154 C289.604944,328.176154 272.754499,332.374414 267.477014,323.466567 C267.477014,323.466567 261.181538,322.955241 258.529401,318.783893 C258.529401,318.783893 230.588201,326.077024 246.393866,304.170718 C246.393866,304.170718 239.026819,281.726173 269.620155,290.607108 C269.620155,290.607108 276.960413,284.874868 264.851667,279.653954 C264.851667,279.653954 247.465436,294.778456 239.00003,287.996651 C239.00003,287.996651 233.18676,281.753085 252.716131,270.261693 C252.716131,270.261693 225.846502,266.601671 250.626569,253.549388 C250.626569,253.549388 257.48462,249.378039 268.0128,249.889366 C268.0128,249.889366 278.567769,249.351128 282.237897,257.747648 C282.237897,257.747648 289.069159,256.159844 289.069159,254.087626 L296.436206,254.087626 C296.436206,254.087626 301.204694,250.938931 307.017964,250.938931 C312.831234,250.938931 313.34023,245.718018 320.198281,256.671171 C320.198281,256.671171 315.429792,265.040779 302.249476,260.842519 C302.249476,260.842519 292.230292,260.842519 301.204694,266.574759 C301.204694,266.574759 320.198281,280.138369 300.159913,288.481066 C300.159913,288.481066 298.070351,295.774197 312.295449,295.774197 C312.295449,295.774197 321.778847,297.873327 324.93998,300.483784 C324.93998,300.483784 319.153499,294.724632 321.243062,288.992392 C321.243062,288.992392 317.546144,276.478347 335.46816,280.111457 C335.46816,280.111457 349.184261,282.721914 343.879988,259.766042 C343.879988,259.766042 303.294257,260.304281 337.021937,241.492846 C337.021937,241.492846 320.707277,232.073672 319.12671,231.051019 C319.12671,231.051019 305.383819,233.661476 302.758472,237.832824 C302.758472,237.832824 286.443811,246.202432 288.533374,231.562345 C288.533374,231.562345 295.900421,229.490127 295.900421,226.879671 C295.900421,226.879671 296.971991,222.196996 303.830042,220.609192 L319.662495,221.147431 C319.662495,221.147431 325.984761,213.316061 329.145894,213.316061 C329.145894,213.316061 343.370992,208.606474 336.53973,205.484691 C336.53973,205.484691 328.074323,204.946452 328.074323,198.702886 C328.074323,198.702886 331.771242,190.871516 341.25464,192.970646 C341.25464,192.970646 344.951558,188.799297 340.718855,184.089711 C340.718855,184.089711 334.905585,183.551472 335.44137,181.479254 C335.44137,181.479254 328.074323,182.528819 324.886401,179.89145 C324.886401,179.89145 315.911999,190.360189 310.634514,187.749732 C310.634514,187.749732 301.151116,215.926517 276.906834,203.950711 C276.906834,203.950711 276.397838,201.851581 272.70092,199.752451 C272.70092,199.752451 269.566577,195.069776 272.165135,190.871516 L275.326268,191.382842 C275.326268,191.382842 273.209916,184.089711 289.01558,185.139276 C289.01558,185.139276 293.248284,185.139276 292.739288,175.208776 C292.739288,175.208776 292.739288,167.377406 303.294257,170.499189 C303.294257,170.499189 308.571741,173.109646 311.706085,159.546036 C311.706085,159.546036 317.519355,147.031991 334.905585,150.153774 C334.905585,150.153774 327.538538,140.223274 327.002753,131.369251 C327.002753,131.369251 320.680487,119.366532 328.583319,113.607381 C328.583319,113.607381 331.262246,109.436032 330.190675,102.627315 C330.190675,102.627315 319.635706,101.604662 323.84162,90.1132705 C323.84162,90.1132705 336.53973,79.1601172 339.700863,95.3341838 C339.700863,95.3341838 353.390175,106.825576 353.925961,94.7959453 C353.925961,94.7959453 358.131875,81.2323354 341.790425,83.8427921 C341.790425,83.8427921 332.307027,84.8923571 337.021937,69.2296171 C337.021937,69.2296171 340.745644,69.7678556 341.25464,61.9095736 C341.25464,61.9095736 361.293008,57.7382253 359.176656,52.517312 L363.918355,51.4677469 C363.918355,51.4677469 367.106277,46.2737455 369.19584,50.9564204 C369.19584,50.9564204 373.401754,55.1277687 371.821187,57.2268988 C371.821187,57.2268988 385.001504,56.1773337 384.519297,59.2991169 C384.519297,59.2991169 391.859555,56.1773337 393.440121,64.5200303 C393.440121,64.5200303 420.33654,67.130487 399.762387,78.0836402 C399.762387,78.0836402 400.807168,86.9645753 391.350559,85.9150102 C391.350559,85.9150102 391.350559,94.7959453 384.519297,93.7463803 C384.519297,93.7463803 370.26741,105.749099 386.60886,100.528185 L392.39534,97.3794901 C392.39534,97.3794901 412.433707,80.1558584 415.059055,88.498555 C415.059055,88.498555 420.872325,93.1812298 410.344145,96.8412516 C410.344145,96.8412516 395.047477,106.260425 391.886344,110.9431 C391.886344,110.9431 388.189426,119.312709 381.331375,119.312709 C381.331375,119.312709 365.498922,128.70497 376.08068,129.754535 C376.08068,129.754535 381.89395,132.364992 380.849168,133.925883 L385.028293,133.414557 C385.028293,133.414557 392.931125,125.583187 400.833957,131.315427 C400.833957,131.315427 408.227793,137.558993 396.654833,141.245927 C396.654833,141.245927 397.699614,144.394622 387.653641,143.318145 C387.653641,143.318145 380.340172,154.29821 373.455332,145.417275 C373.455332,145.417275 369.249418,141.757254 368.177848,149.588624 C368.177848,149.588624 366.115075,157.958232 372.410551,157.958232 C372.410551,157.958232 380.340172,161.106927 377.661246,163.179145 C377.661246,163.179145 386.073074,164.740037 386.635649,167.350494 C386.635649,167.350494 401.396532,170.472277 406.138231,165.789602 C406.138231,165.789602 416.719989,155.859102 421.970684,160.057362 C421.970684,160.057362 427.22138,165.278275 411.951501,171.548754 C411.951501,171.548754 410.90672,175.720102 399.815965,175.720102 C399.815965,175.720102 392.448918,176.769667 391.404137,177.819232 C391.404137,177.819232 387.68043,182.528819 387.68043,185.650602 C387.68043,185.650602 386.662438,193.993299 374.017907,187.749732 C361.346586,181.479254 373.455332,186.188841 373.455332,186.188841 C373.455332,186.188841 357.113883,190.360189 365.043504,200.802016 L384.546086,201.824669 C384.546086,201.824669 392.422129,202.362907 390.841563,209.656039 C390.841563,209.656039 391.886344,217.487409 389.769992,220.609192 C389.769992,220.609192 390.841563,228.978801 396.119047,227.929236 C396.119047,227.929236 410.87993,228.978801 409.80836,233.661476 C409.80836,233.661476 411.415716,242.542411 416.130626,245.664194 C416.130626,245.664194 421.943895,268.620065 399.789176,264.448717 C399.789176,264.448717 386.073074,263.910479 383.983512,244.103302 C383.983512,244.103302 378.706027,232.073672 375.544895,234.684129 C375.544895,234.684129 374.500113,240.954607 377.125461,244.103302 C377.125461,244.103302 379.268602,250.346869 370.26741,246.17552 C370.26741,246.17552 361.319797,243.565064 361.319797,247.225085 L361.855582,274.379217 C361.855582,274.379217 375.571684,276.478347 378.706027,279.600131 C378.706027,279.600131 399.28018,279.088804 398.235399,291.091522 C398.235399,291.091522 402.441313,296.823762 408.254583,291.629761 C408.254583,291.629761 417.228985,285.359282 424.087036,295.289783 C424.087036,295.289783 433.034649,297.900239 433.034649,295.289783 C433.034649,295.289783 440.964271,287.942827 443.616408,300.510696 C443.616408,300.510696 442.544837,307.803827 445.70597,309.364719 C445.70597,309.364719 448.840314,320.344784 434.642005,321.905676 C434.642005,321.905676 434.642005,318.245654 430.436091,319.295219 C430.436091,319.295219 428.29295,311.463849 424.113825,314.074306 C424.113825,314.074306 421.461689,317.734328 416.184204,317.734328 C416.184204,317.734328 401.423321,319.295219 398.797973,316.684763 C398.797973,316.684763 388.243004,313.536067 389.314575,311.463849 C390.359356,309.364719 388.243004,309.902958 388.243004,309.902958 C388.243004,309.902958 379.831176,310.952523 381.947528,315.123871 C381.947528,315.123871 369.276207,321.905676 381.947528,320.856111 C381.947528,320.856111 391.430927,325.027459 390.895141,329.225719 C390.895141,329.225719 404.611243,333.935306 402.494891,336.007524 C402.494891,336.007524 415.675208,337.057089 408.817157,360.012961 C408.817157,360.012961 404.075458,384.018398 392.475708,377.774831 C392.475708,377.774831 378.277399,385.067963 370.856774,378.286158 C370.856774,378.286158 365.070293,379.335723 365.070293,380.896614 C365.070293,380.896614 374.044696,387.678419 371.901555,389.777549 C371.901555,389.777549 380.902747,391.338441 382.483313,387.678419 C382.483313,387.678419 387.251802,381.434853 393.520489,381.434853 C393.520489,381.434853 406.19181,376.725266 411.469294,386.655766 C411.469294,386.655766 415.675208,388.754896 416.210993,400.219376 C416.210993,400.219376 425.694392,408.588985 416.210993,412.222094 L413.558856,416.904769 C413.558856,416.904769 424.140615,413.271659 425.694392,425.785704 C425.694392,425.785704 434.668794,429.445726 427.274958,440.910206 L422.024263,441.959771 C422.024263,441.959771 420.416907,449.252902 404.102247,439.349314 C404.102247,439.349314 401.959106,434.128401 398.824763,436.200619 C398.824763,436.200619 394.618849,430.979706 390.386145,429.957053 C390.386145,429.957053 385.108661,426.297031 385.108661,433.078836 C385.108661,433.078836 389.85036,438.811076 376.696833,439.349314 C376.696833,439.349314 381.438532,445.592881 378.786395,447.692011 C378.786395,447.692011 389.368153,465.453881 397.244196,463.892989 C397.244196,463.892989 408.843946,467.041685 408.843946,481.143533 C408.843946,481.143533 417.818349,494.195816 413.585646,498.878491 C413.585646,498.878491 419.398915,505.14897 413.585646,509.320318 C413.585646,509.320318 412.540864,518.201253 404.102247,508.782079 L385.108661,508.243841 C385.108661,508.243841 389.341364,513.464754 390.386145,517.124776 C390.386145,517.124776 402.494891,522.345689 403.030677,532.303101 C403.030677,532.303101 401.959106,540.134471 394.618849,539.084906 C394.618849,539.084906 387.734008,547.965841 384.090669,547.454515 C384.090669,547.454515 391.993501,553.186755 394.618849,551.598951 C394.618849,551.598951 399.869544,548.988495 403.593251,553.186755 C403.593251,553.186755 415.166212,549.526733 416.237783,560.479886 C416.237783,560.479886 426.792752,571.971278 415.166212,576.680865 C415.166212,576.680865 408.870736,577.73043 408.870736,579.82956 C408.870736,579.82956 403.057466,581.901778 399.360548,578.779995 C399.360548,578.779995 391.457716,579.291321 390.412935,576.142626 C390.412935,576.142626 379.884755,577.192191 379.884755,574.554823 C379.884755,574.554823 374.63406,573.505258 375.143056,571.944366 C375.143056,571.944366 370.374567,571.944366 373.026704,576.653953 C373.026704,576.653953 375.678841,576.653953 376.187837,579.291321 C376.187837,579.291321 383.045888,578.241756 383.045888,581.36354 C383.045888,581.36354 391.457716,582.924431 390.94872,586.073126 C390.94872,586.073126 400.432118,585.534888 399.896333,588.683583 C399.896333,588.683583 404.129036,589.706236 403.057466,593.39317 C403.057466,593.39317 409.915517,596.514953 409.406521,605.368976 C409.406521,605.368976 417.818349,608.006345 416.773568,613.200346 C416.773568,613.200346 418.86313,621.569955 405.147028,618.98641 L401.959106,615.837715 L397.779981,615.299476 C397.779981,615.299476 386.716017,608.517671 387.734008,606.418541 C388.832368,604.346323 388.296583,604.85765 388.296583,604.85765 C388.296583,604.85765 376.187837,608.517671 373.026704,600.148063 L370.374567,603.808085 L372.919547,976 L354.488535,969.729522 Z" id="Shape" fill="#FFFFFF"></path>
                <path d="M577.527043,995.833487 L577.527043,727.233908 L564.381244,727.233908 C564.381244,727.233908 562.804817,729.924478 560.213064,729.924478 C560.213064,729.924478 563.339199,733.691275 557.03349,734.202484 C557.03349,734.202484 552.86531,736.893053 554.9494,738.507395 L544.983174,738.507395 C544.983174,738.507395 538.677465,752.444547 526.039329,742.758495 C526.039329,742.758495 520.241283,742.758495 524.997283,733.66437 C524.997283,733.66437 529.192183,732.588142 526.039329,725.619566 C526.039329,725.619566 528.657801,718.112876 532.879419,717.063554 C532.879419,717.063554 543.91441,702.561383 552.357647,702.561383 C552.357647,702.561383 565.476727,703.637611 565.476727,698.821491 C565.476727,698.821491 571.782436,692.902238 574.427627,693.978466 C574.427627,693.978466 580.733336,688.086118 575.469672,683.269998 L562.323873,682.19377 C562.323873,682.19377 559.171018,692.391029 547.601646,688.624232 C547.601646,688.624232 535.524611,681.117542 550.7545,669.332847 C550.7545,669.332847 555.991445,671.458397 552.86531,660.749929 C549.712455,649.98765 551.288883,659.673701 551.288883,659.673701 C551.288883,659.673701 547.067264,650.579575 559.651962,645.225342 C559.651962,645.225342 579.103471,644.122208 573.358863,641.996658 C573.358863,641.996658 580.172235,633.924949 569.644908,635.566196 C569.644908,635.566196 566.518772,634.489968 561.22839,637.180538 C561.22839,637.180538 546.506163,639.898013 545.9985,635.566196 C545.9985,635.566196 538.116364,632.364418 539.692791,629.135734 L538.116364,620.014703 C538.116364,620.014703 542.818926,616.247905 538.650746,610.355558 C538.650746,610.355558 531.810655,606.104457 532.318318,599.64709 C532.318318,599.64709 533.387082,592.70542 537.581982,592.70542 C537.581982,592.70542 559.651962,593.243534 559.651962,588.400508 C559.651962,588.400508 564.888907,586.813072 564.381244,576.077699 C564.381244,576.077699 566.011109,570.723465 561.255109,563.18987 C561.255109,563.18987 561.789491,557.270616 563.339199,557.862542 L562.804817,554.633858 L559.651962,554.068838 C559.651962,554.068838 560.213064,558.911864 554.415018,556.759408 C554.415018,556.759408 550.220118,559.449978 549.685736,563.18987 C549.685736,563.18987 543.887691,564.266098 544.448792,562.651756 C544.983174,561.037414 543.887691,561.037414 543.887691,561.037414 C543.887691,561.037414 545.464118,568.00599 538.650746,567.44097 C538.650746,567.44097 537.581982,575.485773 529.192183,569.593426 C529.192183,569.593426 524.997283,566.902856 521.283328,571.207768 L516.527327,569.082217 C516.527327,569.082217 512.359147,568.00599 515.485282,557.270616 C515.485282,557.270616 518.157193,551.916382 522.352092,550.328946 C522.352092,550.328946 523.394137,540.669801 531.810655,542.284143 C531.810655,542.284143 534.93679,538.490439 530.234228,535.288661 C530.234228,535.288661 525.478227,535.288661 528.604363,527.781972 L527.562318,515.997276 C527.562318,515.997276 530.715172,508.490586 534.910071,509.566814 L540.708117,506.876245 C540.708117,506.876245 542.792207,503.647561 547.548208,504.723789 C547.548208,504.723789 548.055871,499.907669 546.506163,498.831441 C546.506163,498.831441 534.910071,498.293327 537.0476,491.862865 C537.0476,491.862865 540.734836,477.925714 531.276273,484.356176 C531.276273,484.356176 526.520272,483.818062 522.833036,487.046745 C519.1458,490.275429 521.256609,487.046745 521.256609,487.046745 C521.256609,487.046745 520.722227,493.477207 514.416518,486.508631 C514.416518,486.508631 509.713956,486.508631 511.263664,482.230626 C511.263664,482.230626 511.263664,474.185822 514.9509,474.185822 C514.9509,474.185822 519.1458,469.369702 531.276273,470.957138 L534.402408,467.217246 C534.402408,467.217246 542.792207,455.405645 548.616972,455.405645 C548.616972,455.405645 551.769826,451.127639 554.895962,451.665753 C554.895962,451.665753 561.20167,437.728602 567.534098,438.266716 C567.534098,438.266716 570.660233,435.576146 558.583198,435.576146 L550.701062,435.038032 L549.097916,435.038032 C549.097916,435.038032 550.701062,438.777924 544.395354,437.190488 C544.395354,437.190488 547.521489,442.571627 530.688453,439.342944 C530.688453,439.342944 526.493553,436.652374 521.737553,443.647855 C521.737553,443.647855 515.966226,447.925861 514.389799,448.463975 C514.389799,448.463975 509.152854,453.280095 506,445.800311 L506,429.17259 C506,429.17259 511.236945,423.253336 510.729282,421.6659 C510.729282,421.6659 521.764272,420.051558 519.680182,418.975331 C519.680182,418.975331 531.783936,417.899103 533.868026,420.051558 L542.284544,418.975331 C542.284544,418.975331 549.097916,419.513444 550.701062,410.392413 C550.701062,410.392413 554.895962,403.423837 561.20167,403.961951 C561.20167,403.961951 568.549424,402.885723 565.957671,400.733268 C565.957671,400.733268 568.041761,396.993376 570.125851,398.042698 C570.125851,398.042698 579.584414,393.764692 572.236661,392.15035 C572.236661,392.15035 562.243716,393.226578 571.702279,382.491205 C571.702279,382.491205 576.43156,371.782737 570.633514,369.603375 C570.633514,369.603375 566.946278,366.374692 564.327806,380.338749 C564.327806,380.338749 563.820143,389.432875 554.869243,390.509102 C554.869243,390.509102 545.945062,402.831912 535.925397,389.432875 L533.841307,374.419495 C533.841307,374.419495 538.597308,373.881381 538.062926,367.45092 L538.597308,354.589996 C538.597308,354.589996 537.528544,345.468965 546.479444,345.468965 C546.479444,345.468965 553.319535,337.962275 542.284544,338.500389 C542.284544,338.500389 535.952116,343.316509 526.493553,337.424161 C517.03499,331.531813 524.917126,336.886047 524.917126,336.886047 C524.917126,336.886047 515.431844,335.809819 515.966226,329.379358 L517.542653,323.48701 C517.542653,323.48701 514.897462,314.904092 524.382744,315.442206 C524.382744,315.442206 533.333644,314.365978 535.952116,318.132776 C535.952116,318.132776 543.353308,320.823346 543.860971,319.209004 C543.860971,319.209004 550.16668,315.469112 553.319535,318.132776 C553.319535,318.132776 543.353308,310.626086 553.319535,305.244947 C553.319535,305.244947 560.667288,300.966941 541.723443,301.505055 C541.723443,301.505055 537.528544,305.244947 535.925397,294.536479 C535.925397,294.536479 536.486499,285.953562 548.590253,288.644131 C548.590253,288.644131 553.319535,292.384023 557.487715,287.02979 C557.487715,287.02979 559.598524,282.751784 562.751378,283.289898 C562.751378,283.289898 565.39657,275.245094 569.057087,276.321322 C569.057087,276.321322 574.855133,274.195772 573.278706,268.276518 C573.278706,268.276518 569.56475,268.276518 567.48066,270.428974 C567.48066,270.428974 562.724659,269.379652 556.472389,262.384171 C556.472389,262.384171 546.987107,259.720506 554.842523,251.675703 L566.919559,250.599475 L569.030368,247.908905 L571.114458,248.447019 C571.114458,248.447019 573.251987,240.402216 564.80875,237.738552 C564.80875,237.738552 561.682614,236.662324 557.460996,231.30809 L550.647624,229.155634 C550.647624,229.155634 541.189061,214.680369 553.800478,217.909052 C553.800478,217.909052 559.037423,217.909052 561.148232,221.137736 C561.148232,221.137736 566.411896,223.290192 565.904233,225.442648 C565.904233,225.442648 569.030368,222.752078 571.114458,222.752078 C571.114458,222.752078 564.80875,220.599622 565.343132,216.321616 C565.343132,216.321616 567.988323,212.016705 570.072413,212.554819 L571.114458,210.940477 L574.294032,212.016705 C574.294032,212.016705 582.683831,207.200585 573.732931,203.971901 C573.732931,203.971901 571.087739,202.357559 564.78203,200.232009 C564.78203,200.232009 555.350186,204.510015 555.857849,193.263433 C555.857849,193.263433 561.655895,179.864396 565.316413,177.71194 C565.316413,177.71194 570.045694,174.483256 572.664166,177.71194 L574.774976,176.635712 C574.774976,176.635712 572.664166,171.281478 573.198548,165.927245 C573.198548,165.927245 576.324684,151.451979 585.275584,161.622333 C585.275584,161.622333 590.512528,163.236675 592.115675,171.792687 C593.718821,180.375604 592.623338,173.407029 592.623338,173.407029 C592.623338,173.407029 597.91372,177.146921 597.379338,180.375604 C597.379338,180.375604 604.78053,186.294858 604.246148,181.989946 L605.795856,187.882294 L607.933385,188.958522 L607.399003,193.236528 C607.399003,193.236528 612.101565,190.007844 611.05952,200.743217 C611.05952,200.743217 611.593902,207.711793 617.365229,207.711793 C617.365229,207.711793 623.163274,207.173679 622.09451,211.989799 C622.09451,211.989799 627.331455,213.631046 619.449319,222.187058 C619.449319,222.187058 615.788801,225.415742 619.449319,228.079406 C619.449319,228.079406 644.19121,242.016557 623.670937,254.877481 L613.170329,256.491823 L612.635947,270.967088 C612.635947,270.967088 623.644218,268.276518 629.442264,276.321322 C635.213591,284.366125 631.018691,277.935664 631.018691,277.935664 C631.018691,277.935664 636.255636,284.904239 637.858782,284.366125 C637.858782,284.366125 643.656828,285.442353 643.122446,288.644131 C643.122446,288.644131 655.733863,290.258473 653.088672,295.612707 C653.088672,295.612707 654.184155,302.043169 658.352335,302.581283 C658.352335,302.581283 665.192426,303.119397 664.658044,306.886194 C664.658044,306.886194 672.005798,303.119397 673.047843,317.594662 C673.047843,317.594662 676.173978,332.608041 656.775908,332.608041 C656.775908,332.608041 649.935817,338.500389 642.000243,333.146155 C642.000243,333.146155 634.118107,328.30313 634.652489,320.823346 C634.652489,320.823346 630.991972,318.132776 629.442264,311.191106 C629.442264,311.191106 621.50669,300.455733 614.185655,305.809966 C614.185655,305.809966 607.372283,307.397403 604.753811,311.702314 L605.742418,313.85477 C605.742418,313.85477 619.930263,315.469112 621.50669,321.36146 C621.50669,321.36146 629.442264,327.253807 616.804127,329.944377 L616.269745,333.173061 C616.269745,333.173061 623.109836,331.020605 626.235971,339.576617 L640.423816,342.267187 C640.423816,342.267187 648.867053,342.267187 653.061953,351.926332 C657.256852,361.558572 653.596335,353.540674 653.596335,353.540674 L653.061953,351.926332 C653.061953,351.926332 662.547235,357.280566 658.859998,364.249142 C658.859998,364.249142 657.817953,372.293945 644.137772,365.863483 C644.137772,365.863483 643.095726,362.096686 633.102781,360.50925 L626.797073,359.433022 C626.797073,359.433022 621.50669,353.540674 616.269745,362.123592 C616.269745,362.123592 618.888218,372.858965 628.346781,371.782737 C628.346781,371.782737 636.763299,369.630281 636.763299,373.397079 C636.763299,373.397079 654.130717,369.630281 657.791234,378.213199 C657.791234,378.213199 664.096943,379.827541 668.852943,375.011421 L687.235688,374.473307 L689.319778,378.751313 L693.541396,379.827541 C693.541396,379.827541 699.339442,387.33423 695.117823,392.688464 C695.117823,392.688464 694.583441,398.042698 700.915869,400.195154 C700.915869,400.195154 714.061669,406.087501 705.08405,416.284761 C705.08405,416.284761 695.117823,426.455114 685.65926,409.854299 L683.014069,408.778071 L683.014069,405.549387 L678.81917,406.087501 C678.81917,406.087501 674.62427,417.360989 659.367661,420.024653 C659.367661,420.024653 648.840334,419.486539 645.660761,416.795969 L639.889434,416.257855 C639.889434,416.257855 631.472916,412.491057 630.938534,404.47316 C630.938534,404.47316 633.557006,393.737786 637.244243,392.15035 L630.938534,389.45978 L630.938534,387.307324 L623.056398,387.845438 C623.056398,387.845438 621.426533,392.15035 616.750689,390.536008 C616.750689,390.536008 616.750689,394.814014 609.402935,392.688464 C609.402935,392.688464 612.582509,398.042698 609.402935,399.65704 C609.402935,399.65704 617.792734,400.733268 615.708644,403.423837 C615.708644,403.423837 624.632825,398.580812 628.320062,408.778071 L626.209252,411.441735 C626.209252,411.441735 629.388826,422.177109 619.903544,422.715222 C619.903544,422.715222 617.285071,430.760026 614.693318,430.760026 L629.415545,430.760026 C629.415545,430.760026 630.991972,424.329564 648.893772,428.069456 C648.893772,428.069456 657.256852,421.100881 664.123662,421.100881 C664.123662,421.100881 669.387326,417.334083 673.582225,417.872197 L675.719753,415.719741 L686.220362,416.257855 C686.220362,416.257855 692.499351,419.997747 692.499351,425.378887 C692.499351,425.378887 707.75596,439.316038 693.060452,444.132158 C693.060452,444.132158 685.712699,449.486392 680.422316,438.23981 L674.650989,437.701696 C674.650989,437.701696 670.45609,440.392266 666.742134,439.854152 C666.742134,439.854152 665.700089,447.360841 659.421099,447.360841 C659.421099,447.360841 659.421099,452.176961 650.977862,451.100733 C650.977862,451.100733 652.55429,457.019987 644.164491,453.791303 C644.164491,453.791303 643.122446,458.607423 637.858782,456.454967 C637.858782,456.454967 636.255636,461.809201 642.588063,462.374221 C642.588063,462.374221 649.962536,463.988563 646.782963,470.930233 L665.192426,472.544574 C665.192426,472.544574 668.372,473.082688 671.498135,477.360694 C671.498135,477.360694 694.075778,475.746352 693.060452,488.069162 L692.499351,500.391971 C692.499351,500.391971 708.290342,511.100439 700.915869,521.297698 C700.915869,521.297698 693.568115,527.190046 687.235688,517.530901 C687.235688,517.530901 684.590496,512.714781 679.887934,510.024211 C679.887934,510.024211 672.54018,507.360547 668.879663,505.7193 C668.879663,505.7193 665.700089,503.566844 666.207752,508.947983 C666.207752,508.947983 672.513461,509.486097 672.005798,512.176667 L680.956698,513.791009 C680.956698,513.791009 687.796789,519.683357 687.235688,522.91204 C687.235688,522.91204 699.339442,538.436628 684.082833,541.154103 C684.082833,541.154103 679.887934,546.481431 671.471416,540.077875 L664.123662,540.615989 C664.123662,540.615989 663.054898,544.382787 658.325616,542.768445 C658.325616,542.768445 656.241526,549.172001 642.534625,547.611471 C642.534625,547.611471 639.381771,554.580046 630.965253,555.091255 C630.965253,555.091255 628.320062,558.858052 622.014353,558.858052 C622.014353,558.858052 633.583725,562.05983 631.472916,567.979084 C631.472916,567.979084 637.270962,566.902856 634.599051,573.333318 L636.73658,579.252571 L636.175478,586.732355 C636.175478,586.732355 636.73658,588.857905 630.938534,589.961039 C630.938534,589.961039 628.854444,597.440823 631.980579,598.517051 C631.980579,598.517051 631.980579,599.055165 629.843051,600.669506 C629.843051,600.669506 634.599051,608.176196 620.972308,602.256943 C620.972308,602.256943 613.571116,598.517051 619.342442,612.992316 L621.987634,615.117866 C621.987634,615.117866 627.812399,602.230037 638.82067,602.230037 C638.82067,602.230037 647.237188,599.028259 645.126378,596.875803 C645.126378,596.875803 654.103998,591.548475 657.764515,599.028259 C657.764515,599.028259 664.070224,599.539467 663.562561,602.230037 C663.562561,602.230037 673.021124,600.642601 671.95236,603.871284 C671.95236,603.871284 679.300113,603.871284 677.216023,602.230037 C677.216023,602.230037 689.266339,600.642601 688.224294,606.534948 C687.182249,612.427296 688.224294,608.176196 688.224294,608.176196 C688.224294,608.176196 693.487958,608.71431 693.487958,614.579752 C693.487958,614.579752 708.717848,614.041638 705.591712,620.4721 C705.591712,620.4721 714.515893,625.315125 710.801938,633.359929 C710.801938,633.359929 716.065602,634.436157 716.599984,642.48096 C716.599984,642.48096 719.779557,650.55267 708.210185,651.063878 L685.605822,651.063878 C685.605822,651.063878 678.765731,647.8621 671.925641,650.525764 C671.925641,650.525764 680.876541,657.467434 676.093821,662.31046 C676.093821,662.31046 685.07144,665.512238 664.551168,678.911275 C664.551168,678.911275 651.405368,686.417965 639.835996,680.014409 C639.835996,680.014409 630.377433,683.216187 625.621432,676.785725 C625.621432,676.785725 620.91887,677.861953 615.655206,671.942699 C615.655206,671.942699 608.815115,668.202807 607.77307,675.171383 L615.067386,675.709497 C615.067386,675.709497 617.739296,681.601845 623.00296,677.861953 C623.00296,677.861953 639.835996,685.368642 639.835996,682.704978 C639.835996,682.704978 648.225795,687.521098 646.141704,690.184762 C646.141704,690.184762 655.600268,694.462768 655.600268,698.229566 C655.600268,698.229566 658.245459,704.148819 661.371594,705.225047 C661.371594,705.225047 669.307168,714.857287 653.489458,719.700313 C653.489458,719.700313 648.252514,724.516432 639.301614,714.857287 C639.301614,714.857287 634.545613,718.059065 633.503568,712.704831 L630.377433,712.704831 C630.377433,712.704831 628.801005,717.547857 621.399813,713.242945 C621.399813,713.242945 616.697251,713.242945 616.697251,710.552375 C616.697251,710.552375 613.036734,708.964939 611.94125,711.117395 L606.196643,711.117395 C606.196643,711.117395 601.975024,717.547857 608.280733,720.238426 C608.280733,720.238426 613.490958,722.928996 611.94125,724.516432 C611.94125,724.516432 619.289004,722.902091 629.789612,723.978318 C640.343659,725.054546 631.419478,723.978318 631.419478,723.978318 C631.419478,723.978318 636.683141,729.870666 641.412423,729.870666 C641.412423,729.870666 650.870986,734.686786 640.343659,744.345932 C640.343659,744.345932 633.022624,750.238279 625.113769,748.085824 C625.113769,748.085824 620.357768,745.960273 619.315723,741.682267 C619.315723,741.682267 613.517678,742.73159 612.529071,738.480489 C611.433587,734.175578 612.529071,736.839242 612.529071,736.839242 C612.529071,736.839242 611.967969,744.884045 603.551451,733.09935 L595.161653,734.148672 L595.161653,992.577898 C595.428844,992.631709 591.768326,996.882809 577.527043,995.833487 Z" id="Shape" fill="#FFFFFF"></path>
                <g transform="translate(258.000000, 224.000000)" fill="#006F53" id="Shape">
                    <path d="M305.558729,265.757771 L305.558729,278.074818 C305.558729,278.074818 303.46813,279.688405 301.350728,276.461231 C299.233325,273.234057 299.742574,275.385506 299.742574,275.385506 C299.742574,275.385506 299.742574,269.495914 296.070623,270.571638 L294.435667,267.344464 L298.161223,266.26874 L305.558729,265.757771 Z"></path>
                    <path d="M16.5467264,0 C16.5467264,0 30.7788857,2.66241847 32.8426828,0.510969201 C32.8426828,0.510969201 42.8936428,7.4762862 48.1469445,6.93842388 C48.1469445,6.93842388 55.0083998,9.62773546 56.0805022,8.01414852 C56.0805022,8.01414852 59.7792555,14.9525724 66.0778571,14.4416032 L66.6407108,19.7933332 C66.6407108,19.7933332 60.8245553,26.7586502 51.3364491,23.5314763 C51.3364491,23.5314763 46.592396,17.1040217 42.3575916,19.2554709 C42.3575916,19.2554709 35.4961362,16.5661593 34.9868876,12.2901539 C34.4508364,8.01414852 34.4508364,10.676567 34.4508364,10.676567 C34.4508364,10.676567 28.1254323,6.91153077 26.0348326,8.52511772 C26.0348326,8.52511772 20.2186771,-0.0537862316 16.0106752,1.55980072 C11.7758708,3.2271739 16.5467264,0 16.5467264,0 Z"></path>
                    <path d="M5.15563847,263.095352 C5.15563847,263.095352 -4.86851892,261.481765 3.03823624,268.447082 L16.1982931,268.447082 C16.1982931,268.447082 18.8517466,264.171077 25.6863993,266.833495 C25.6863993,266.833495 28.8222988,262.019627 35.1745055,263.095352 L41.4999097,260.406041 C41.4999097,260.406041 44.1533631,253.978586 37.8011564,255.05431 C37.8011564,255.05431 34.6116518,258.281484 27.7501964,255.05431 C27.7501964,255.05431 28.3130502,259.868178 15.6086368,260.406041 C15.6622419,260.406041 15.1529933,264.171077 5.15563847,263.095352 Z"></path>
                    <path d="M27.7501964,277.40249 L58.3319173,276.326765 C58.3319173,276.326765 59.4040196,281.678495 48.8438111,284.905669 C48.8438111,284.905669 37.2115001,283.318975 37.2115001,286.519256 C37.2115001,286.519256 25.096743,287.057118 23.4885894,284.367807 L16.1178855,283.292082 C16.1178855,283.292082 5.07523079,282.75422 18.2084851,277.40249 C18.2084851,277.40249 27.7501964,277.40249 27.7501964,277.40249 Z"></path>
                    <path d="M124.480635,264.332435 L123.971386,270.732997 C123.971386,270.732997 138.712794,268.581548 124.480635,264.332435 Z"></path>
                </g>
            </g>
        </g>
    </g>
</svg>