<svg viewBox="0 0 145 110" version="1.1" xmlns="http://www.w3.org/2000/svg" xmlns:xlink="http://www.w3.org/1999/xlink">
  <g id="Landing" stroke="none" stroke-width="1" fill="none" fill-rule="evenodd">
      <g id="Artboard" transform="translate(-927.000000, -1314.000000)" fill="#006E53" fill-rule="nonzero">
          <g id="Group-6-Copy-2" transform="translate(776.000000, 1209.000000)">
              <g id="noun_Image_1559834" transform="translate(151.000000, 105.000000)">
                  <path d="M11.0326084,0 C5.0024212,0 0,4.98763001 0,10.9999874 L0,99.0000126 C0,105.012291 5.0024212,110 11.0326084,110 L133.967391,110 C139.997578,110 145,105.012291 145,99.0000126 L145,10.9999874 C145,4.98763001 139.997578,0 133.967391,0 L11.0326084,0 Z M11.0326084,9.42856065 L133.967391,9.42856065 C134.922232,9.42856065 135.543478,10.0479699 135.543478,10.9999874 L135.543478,73.4643275 L111.705163,54.4599635 C110.145514,53.2020363 107.754464,53.0973793 106.090353,54.2143495 L83.7296192,69.5357605 L53.3899453,45.0313557 C52.422302,44.2457051 51.1335972,43.8656556 49.8930024,44.0001069 C49.1162532,44.093921 48.3640925,44.3836293 47.7258828,44.8349273 L9.45652142,71.1562158 L9.45652142,10.9999874 C9.45652142,10.0479699 10.0777613,9.42856065 11.0326084,9.42856065 Z M83.5326084,22.000132 C75.7545688,22.000132 69.3478258,28.3879347 69.3478258,36.142973 C69.3478258,43.8980113 75.7545688,50.285814 83.5326084,50.285814 C91.3106448,50.285814 97.717391,43.8980113 97.717391,36.142973 C97.717391,28.3879347 91.3106448,22.000132 83.5326084,22.000132 Z M83.5326084,31.4286927 C86.1999622,31.4286927 88.2608692,33.483506 88.2608692,36.142973 C88.2608692,38.8024399 86.1999622,40.8572533 83.5326084,40.8572533 C80.8652546,40.8572533 78.8043475,38.8024399 78.8043475,36.142973 C78.8043475,33.483506 80.8652546,31.4286927 83.5326084,31.4286927 Z M50.2377714,54.6072062 L80.5774453,79.0625354 C82.1370937,80.3204625 84.5281437,80.4249624 86.1922551,79.3079922 L108.503736,63.9865812 L135.543478,85.5446708 L135.543478,99.0000126 C135.543478,99.9519829 134.922232,100.571439 133.967391,100.571439 L11.0326084,100.571439 C10.0777613,100.571439 9.45652142,99.9519829 9.45652142,99.0000126 L9.45652142,82.6472741 L50.2377714,54.6072062 Z" id="Shape"></path>
              </g>
          </g>
      </g>
  </g>
</svg>