<svg width="65px" height="28px" viewBox="0 0 65 28" version="1.1" xmlns="http://www.w3.org/2000/svg" xmlns:xlink="http://www.w3.org/1999/xlink">
  <g id="Landing" stroke="none" stroke-width="1" fill="none" fill-rule="evenodd">
      <g id="Artboard" transform="translate(-295.000000, -3836.000000)">
          <g id="FDIC-Group" transform="translate(295.000000, 3836.000000)">
              <polygon id="Fill-1" fill="#4A4A4A" points="0.954081818 19.4943273 0.954081818 21.7244182 2.30844545 21.7244182 2.30844545 21.3249636 1.32280909 21.3249636 1.32280909 20.7506 2.18435455 20.7506 2.18435455 20.3641455 1.32280909 20.3641455 1.32280909 19.8902364 2.26471818 19.8902364 2.26471818 19.4943273"></polygon>
              <g id="Group-6" transform="translate(2.555564, 19.425309)" fill="#4A4A4A">
                  <path d="M1.67936364,1.64627273 C1.64745455,1.77509091 1.60018182,1.88145455 1.53754545,1.96654545 L1.74318182,2.20645455 L1.54818182,2.46054545 L1.33190909,2.20645455 C1.26454545,2.25609091 1.20781818,2.29154545 1.15936364,2.31163636 C1.07781818,2.34472727 0.980909091,2.36127273 0.867454545,2.36127273 C0.631090909,2.36127273 0.434909091,2.27381818 0.281272727,2.10127273 C0.0933636364,1.89209091 0,1.58481818 0,1.18063636 C0,0.772909091 0.0957272727,0.465636364 0.288363636,0.256454545 C0.444363636,0.0862727273 0.639363636,0 0.872181818,0 C1.10618182,0 1.30354545,0.091 1.46190909,0.271818182 C1.64627273,0.479818182 1.73845455,0.771727273 1.73845455,1.14754545 C1.73845455,1.34609091 1.71836364,1.51272727 1.67936364,1.64627273 M0.992727273,1.94527273 C1.01518182,1.93818182 1.04354545,1.92636364 1.07781818,1.90863636 L0.894636364,1.69354545 L1.08963636,1.44418182 L1.274,1.65927273 C1.30354545,1.586 1.32363636,1.52218182 1.33545455,1.46781818 C1.35318182,1.38627273 1.36263636,1.29054545 1.36263636,1.18181818 C1.36263636,0.931272727 1.32127273,0.738636364 1.23736364,0.601545455 C1.15345455,0.464454545 1.03172727,0.395909091 0.871,0.395909091 C0.719727273,0.395909091 0.600363636,0.462090909 0.510545455,0.593272727 C0.420727273,0.724454545 0.375818182,0.919454545 0.375818182,1.18063636 C0.375818182,1.48554545 0.439636364,1.70418182 0.568454545,1.83654545 C0.651181818,1.92281818 0.750454545,1.96536364 0.866272727,1.96536364 C0.91,1.96536364 0.952545455,1.95827273 0.992727273,1.94527273" id="Fill-2"></path>
                  <path d="M2.02457273,0.0689 L2.40984545,0.0689 L2.40984545,1.43744545 C2.40984545,1.59108182 2.42402727,1.70217273 2.45357273,1.77308182 C2.49966364,1.89835455 2.60011818,1.95980909 2.75375455,1.95980909 C2.90739091,1.95980909 3.00666364,1.89835455 3.05275455,1.77308182 C3.0823,1.70217273 3.09648182,1.59108182 3.09648182,1.43744545 L3.09648182,0.0689 L3.48175455,0.0689 L3.48175455,1.43980909 C3.48175455,1.67617273 3.45220909,1.86053636 3.39193636,1.9929 C3.28084545,2.23517273 3.06811818,2.35571818 2.75375455,2.35571818 C2.43939091,2.35571818 2.22666364,2.23517273 2.11439091,1.9929 C2.05411818,1.86053636 2.02457273,1.67617273 2.02457273,1.43980909 L2.02457273,0.0689 Z" id="Fill-4"></path>
              </g>
              <path d="M6.91930909,19.4942091 L7.34712727,19.4942091 L7.98649091,21.7254818 L7.5764,21.7254818 L7.45703636,21.2681182 L6.78930909,21.2681182 L6.6664,21.7254818 L6.27167273,21.7254818 L6.91930909,19.4942091 Z M6.89330909,20.8816636 L7.35658182,20.8816636 L7.12849091,20.0047545 L6.89330909,20.8816636 Z" id="Fill-7" fill="#4A4A4A"></path>
              <polygon id="Fill-8" fill="#4A4A4A" points="8.21907273 19.4942091 8.59843636 19.4942091 8.59843636 21.3248455 9.50016364 21.3248455 9.50016364 21.7254818 8.21907273 21.7254818"></polygon>
              <polygon id="Fill-9" fill="#4A4A4A" points="11.1103909 21.7251273 11.1103909 19.4938545 11.4862091 19.4938545 11.4862091 20.3447636 12.1929364 20.3447636 12.1929364 19.4938545 12.5675727 19.4938545 12.5675727 21.7251273 12.1929364 21.7251273 12.1929364 20.7312182 11.4862091 20.7312182 11.4862091 21.7251273"></polygon>
              <g id="Group-16" transform="translate(12.863618, 19.425900)" fill="#4A4A4A">
                  <path d="M1.46309091,2.10009091 C1.326,2.27381818 1.12863636,2.36009091 0.868636364,2.36009091 C0.609818182,2.36009091 0.412454545,2.27381818 0.275363636,2.10009091 C0.091,1.88736364 0,1.58009091 0,1.18063636 C0,0.771727273 0.091,0.464454545 0.275363636,0.26 C0.412454545,0.0862727273 0.609818182,0 0.868636364,0 C1.12863636,0 1.326,0.0862727273 1.46309091,0.26 C1.64627273,0.464454545 1.73727273,0.771727273 1.73727273,1.18063636 C1.73727273,1.58009091 1.64627273,1.88736364 1.46309091,2.10009091 M1.22909091,1.76090909 C1.31772727,1.625 1.36145455,1.43118182 1.36145455,1.18063636 C1.36145455,0.930090909 1.31772727,0.737454545 1.22909091,0.600363636 C1.14045455,0.464454545 1.02109091,0.395909091 0.869818182,0.395909091 C0.719727273,0.395909091 0.599181818,0.463272727 0.509363636,0.600363636 C0.419545455,0.736272727 0.374636364,0.928909091 0.374636364,1.18063636 C0.374636364,1.43118182 0.419545455,1.625 0.509363636,1.76090909 C0.599181818,1.89681818 0.719727273,1.96418182 0.869818182,1.96418182 C1.02109091,1.96418182 1.14045455,1.89681818 1.22909091,1.76090909" id="Fill-10"></path>
                  <path d="M2.02398182,0.0683090909 L2.40925455,0.0683090909 L2.40925455,1.43685455 C2.40925455,1.59049091 2.42343636,1.70158182 2.45298182,1.77249091 C2.49907273,1.89776364 2.59952727,1.95921818 2.75316364,1.95921818 C2.9068,1.95921818 3.00607273,1.89776364 3.05216364,1.77249091 C3.08170909,1.70158182 3.09589091,1.59049091 3.09589091,1.43685455 L3.09589091,0.0683090909 L3.48116364,0.0683090909 L3.48116364,1.43921818 C3.48116364,1.67558182 3.45161818,1.85994545 3.39134545,1.99230909 C3.28025455,2.23458182 3.06752727,2.35512727 2.75316364,2.35512727 C2.4388,2.35512727 2.22607273,2.23458182 2.1138,1.99230909 C2.05352727,1.85994545 2.02398182,1.67558182 2.02398182,1.43921818 L2.02398182,0.0683090909 Z" id="Fill-12"></path>
                  <path d="M4.11863636,1.61022727 C4.13045455,1.71186364 4.15290909,1.78868182 4.18718182,1.83831818 C4.24981818,1.9305 4.35736364,1.97659091 4.50863636,1.97659091 C4.59963636,1.97659091 4.67290909,1.96477273 4.72963636,1.93995455 C4.83718182,1.89386364 4.89154545,1.80759091 4.89154545,1.68113636 C4.89154545,1.60786364 4.86554545,1.55113636 4.81354545,1.50977273 C4.76154545,1.47077273 4.67763636,1.4365 4.563,1.40577273 L4.36681818,1.35259091 C4.17418182,1.30059091 4.04181818,1.24386364 3.96854545,1.18240909 C3.84681818,1.07959091 3.78536364,0.918863636 3.78536364,0.700227273 C3.78536364,0.5005 3.84445455,0.335045455 3.96381818,0.202681818 C4.08318182,0.0703181818 4.25927273,0.00531818182 4.48972727,0.00531818182 C4.68354545,0.00531818182 4.84781818,0.0667727273 4.98372727,0.190863636 C5.12081818,0.316136364 5.19172727,0.495772727 5.19881818,0.733318182 L4.83718182,0.733318182 C4.83009091,0.599772727 4.78163636,0.505227273 4.69063636,0.4485 C4.63036364,0.411863636 4.55472727,0.392954545 4.46490909,0.392954545 C4.36445455,0.392954545 4.28409091,0.417772727 4.22381818,0.465045455 C4.16472727,0.5135 4.134,0.580863636 4.134,0.667136364 C4.134,0.746318182 4.16354545,0.805409091 4.22263636,0.845590909 C4.26045455,0.871590909 4.34081818,0.902318182 4.46372727,0.936590909 L4.78163636,1.02877273 C4.91990909,1.07013636 5.02509091,1.12331818 5.09481818,1.19068182 C5.20236364,1.29586364 5.25672727,1.44831818 5.25672727,1.64686364 C5.25672727,1.85013636 5.19290909,2.01913636 5.06409091,2.15386364 C4.93645455,2.28859091 4.75563636,2.35595455 4.52281818,2.35595455 C4.28409091,2.35595455 4.09618182,2.28977273 3.96027273,2.15622727 C3.82318182,2.02386364 3.75463636,1.84186364 3.75463636,1.61022727 L4.11863636,1.61022727 Z" id="Fill-14"></path>
              </g>
              <polygon id="Fill-17" fill="#4A4A4A" points="18.356 21.7241818 18.7318182 21.7241818 18.7318182 19.4940909 18.356 19.4940909"></polygon>
              <polygon id="Fill-18" fill="#4A4A4A" points="19.0812818 19.4942091 19.4748273 19.4942091 20.2016455 21.0530273 20.2016455 19.4942091 20.5502818 19.4942091 20.5502818 21.7254818 20.1756455 21.7254818 19.4311 20.1371182 19.4311 21.7254818 19.0812818 21.7254818"></polygon>
              <path d="M22.1231636,20.1906545 C22.0948,20.0382 22.0250727,19.9318364 21.9128,19.8715636 C21.8513455,19.8384727 21.7816182,19.8219273 21.7059818,19.8219273 C21.5594364,19.8219273 21.4400727,19.8892909 21.3467091,20.0240182 C21.2521636,20.1599273 21.2060727,20.3632 21.2060727,20.6350182 C21.2060727,20.9080182 21.2568909,21.1018364 21.3585273,21.2152909 C21.4589818,21.3287455 21.5748,21.3854727 21.7048,21.3854727 C21.8312545,21.3854727 21.9352545,21.3405636 22.0168,21.2519273 C22.0971636,21.1621091 22.1479818,21.0439273 22.1657091,20.8997455 L21.7473455,20.8997455 L21.7473455,20.5274727 L22.5025273,20.5274727 L22.5025273,21.7246545 L22.2519818,21.7246545 L22.2129818,21.4469273 C22.1408909,21.5521091 22.0747091,21.6253818 22.0168,21.6691091 C21.9163455,21.7435636 21.7934364,21.7813818 21.6480727,21.7813818 C21.4081636,21.7813818 21.2108,21.6797455 21.0583455,21.4752909 C20.8988,21.2696545 20.8184364,20.9883818 20.8184364,20.6314727 C20.8184364,20.2710182 20.8988,19.9814727 21.0607091,19.7640182 C21.2226182,19.5465636 21.4353455,19.4378364 21.7012545,19.4378364 C21.9317091,19.4378364 22.1160727,19.5099273 22.2567091,19.6529273 C22.3961636,19.7971091 22.4753455,19.9755636 22.4966182,20.1906545 L22.1231636,20.1906545 Z" id="Fill-19" fill="#4A4A4A"></path>
              <polygon id="Fill-21" fill="#4A4A4A" points="1.00407273 22.4097545 1.00407273 26.5839364 3.54616364 26.5839364 3.54616364 25.8334818 1.75098182 25.8334818 1.75098182 22.4097545"></polygon>
              <polygon id="Fill-22" fill="#4A4A4A" points="4.40345455 22.4097545 4.40345455 26.5839364 7.08145455 26.5839364 7.08145455 25.8334818 5.13736364 25.8334818 5.13736364 24.7603909 6.84154545 24.7603909 6.84154545 24.0347545 5.13736364 24.0347545 5.13736364 23.1507545 6.99518182 23.1507545 6.99518182 22.4097545"></polygon>
              <polygon id="Fill-23" fill="#4A4A4A" points="10.2375 22.4097545 10.2375 25.3146636 8.81577273 22.4097545 8.02868182 22.4097545 8.02868182 26.5839364 8.72831818 26.5839364 8.72831818 23.6234818 10.1866818 26.5839364 10.9371364 26.5839364 10.9371364 22.4097545"></polygon>
              <path d="M14.0751,22.5005182 C14.3268273,22.5974273 14.5301,22.7735182 14.6861,23.0299727 C14.8113727,23.2379727 14.8964636,23.4625182 14.9413727,23.7036091 C14.9862818,23.9458818 15.0099182,24.1763364 15.0099182,24.3949727 C15.0099182,24.9504273 14.9141909,25.4196091 14.7227364,25.8048818 C14.4627364,26.3248818 14.0621,26.5837 13.5196455,26.5837 L11.9750091,26.5837 L11.9750091,22.4095182 L13.5196455,22.4095182 C13.7430091,22.4142455 13.9273727,22.4437909 14.0751,22.5005182 Z M12.7030091,23.1351545 L12.7030091,25.8580636 L13.3931909,25.8580636 C13.7465545,25.8580636 13.9935545,25.6559727 14.1330091,25.2494273 C14.2086455,25.0272455 14.2464636,24.7625182 14.2464636,24.4540636 C14.2464636,24.0297909 14.1897364,23.7036091 14.0751,23.4767 C13.9616455,23.2497909 13.7335545,23.1351545 13.3931909,23.1351545 L12.7030091,23.1351545 Z" id="Fill-24" fill="#4A4A4A"></path>
              <polygon id="Fill-26" fill="#4A4A4A" points="15.9300818 22.4097545 15.9300818 26.5839364 18.6069 26.5839364 18.6069 25.8334818 16.6628091 25.8334818 16.6628091 24.7603909 18.3669909 24.7603909 18.3669909 24.0347545 16.6628091 24.0347545 16.6628091 23.1507545 18.5206273 23.1507545 18.5206273 22.4097545"></polygon>
              <path d="M21.8645818,22.5176545 C21.9969455,22.5838364 22.1092182,22.6807455 22.2002182,22.8095636 C22.2758545,22.9159273 22.3361273,23.0329273 22.3810364,23.1605636 C22.4247636,23.2893818 22.4472182,23.4359273 22.4472182,23.6002 C22.4472182,23.7987455 22.4046727,23.9937455 22.3184,24.1852 C22.2321273,24.3778364 22.0903091,24.5125636 21.8929455,24.5917455 C22.0584,24.6697455 22.1754,24.7796545 22.2439455,24.9226545 C22.3136727,25.0644727 22.3479455,25.2819273 22.3479455,25.5750182 L22.3479455,25.8539273 C22.3479455,26.0453818 22.3538545,26.1742 22.3668545,26.2415636 C22.3869455,26.3491091 22.4330364,26.4282909 22.5051273,26.4791091 L22.5051273,26.5842909 L21.6778545,26.5842909 C21.6554,26.4921091 21.6388545,26.4176545 21.6294,26.3609273 C21.6104909,26.2439273 21.5998545,26.1233818 21.5974909,26.0016545 L21.5927636,25.6140182 C21.5904,25.3481091 21.5502182,25.1708364 21.4745818,25.0822 C21.3989455,24.9935636 21.2559455,24.9498364 21.0479455,24.9498364 L20.3164,24.9498364 L20.3164,26.5842909 L19.5824909,26.5842909 L19.5824909,22.4101091 L21.2984909,22.4101091 C21.5443091,22.4160182 21.7322182,22.4514727 21.8645818,22.5176545 Z M20.3164,23.1357455 L20.3164,24.2572909 L21.1224,24.2572909 C21.2831273,24.2572909 21.4024909,24.2348364 21.4828545,24.1899273 C21.6246727,24.1107455 21.6955818,23.9535636 21.6955818,23.7195636 C21.6955818,23.4666545 21.6270364,23.2964727 21.4899455,23.2090182 C21.4131273,23.1605636 21.2973091,23.1357455 21.1436727,23.1357455 L20.3164,23.1357455 Z" id="Fill-27" fill="#4A4A4A"></path>
              <path d="M0,6.97213636 L0,9.37359091 L1.28345455,9.3925 L1.28345455,17.9925909 L21.8329091,17.9925909 L21.164,17.3165909 L21.8447273,17.9925909 L21.8329091,9.37359091 L23.2144545,9.37359091 L23.2144545,6.97213636 L11.6078182,1.07131818 L0,6.97213636 Z M3.57145455,8.07004545 L11.6078182,3.95259091 L19.5531818,8.07004545 L19.5531818,15.7199545 L3.57145455,15.7199545 L3.57145455,8.07004545 Z" id="Fill-29" fill="#4A4A4A"></path>
              <polygon id="Fill-30" fill="#4A4A4A" points="7.80827273 13.7953636 15.3045455 13.7953636 15.3045455 11.7295455 7.80827273 11.7295455"></polygon>
              <polygon id="Fill-31" fill="#4A4A4A" points="7.80827273 10.0809091 15.3388182 10.0809091 15.3388182 8.01509091 7.80827273 8.01509091"></polygon>
              <g id="Group-40" transform="translate(39.141818, 6.090264)" fill="#4A4A4A">
                  <path d="M6.0294,5.6355 L9.49330909,5.6355 C12.6180364,5.6355 14.6094,7.54295455 14.6094,10.5211364 C14.6094,13.8184091 12.4017636,15.4233182 8.88349091,15.4233182 L6.0294,15.4233182 L6.0294,5.6355 Z M9.2794,7.87977273 C9.15412727,7.87977273 8.99221818,7.89868182 8.77712727,7.89868182 L8.77712727,13.1755 C10.5356727,13.1755 11.9006727,12.4805909 11.9006727,10.4655909 C11.9006727,8.73659091 10.7874,7.87977273 9.2794,7.87977273 Z" id="Fill-32"></path>
                  <path d="M25.3449182,8.48498182 L25.3449182,5.90034545 C24.6452818,5.61434545 24.0165545,5.45361818 23.1372818,5.45361818 C20.2465545,5.45361818 17.9313727,7.62934545 17.9313727,10.4999818 C17.9313727,13.3706182 20.2111,15.4742545 23.0829182,15.4742545 C24.1063727,15.4742545 24.8060091,15.2591636 25.3449182,14.8502545 L25.3449182,12.2644364 C24.5377364,12.7631636 23.9811,12.9782545 23.2271,12.9782545 C21.7722818,12.9782545 20.6424636,11.9252545 20.6424636,10.3747091 C20.6424636,8.85961818 21.7911909,7.75343636 23.2271,7.75343636 C24.0165545,7.75343636 24.5909182,8.02170909 25.3449182,8.48498182" id="Fill-34"></path>
                  <path d="M0,3.67309091 L0,4.13636364 L1.92045455,4.13636364 L1.92045455,3.67309091 C1.36381818,3.65536364 1.274,3.58327273 1.274,3.20981818 L1.274,0.874545455 L2.42390909,4.13636364 L2.90845455,4.13636364 L4.147,0.874545455 L4.147,3.15545455 C4.147,3.63763636 4.147,3.63763636 3.46509091,3.67309091 L3.46509091,4.13636364 L5.69045455,4.13636364 L5.69045455,3.67309091 C5.044,3.67309091 5.02627273,3.60218182 5.02627273,3.263 L5.02627273,0.980909091 C5.02627273,0.606272727 5.08063636,0.482181818 5.69045455,0.482181818 L5.69045455,0 L3.78772727,0 L2.81863636,2.62127273 L1.92045455,0 L0,0 L0,0.482181818 C0.538909091,0.482181818 0.628727273,0.482181818 0.628727273,0.945454545 L0.628727273,3.13772727 C0.628727273,3.56554545 0.628727273,3.67309091 0,3.67309091" id="Fill-36"></path>
                  <path d="M9.31414545,3.67309091 L9.31414545,4.13636364 L11.0916,4.13636364 L11.0916,3.67309091 C10.6602364,3.65536364 10.6602364,3.60218182 10.6602364,3.01363636 L10.6602364,2.51372727 C10.6602364,2.03272727 10.8765091,1.64036364 11.3244182,1.64036364 C11.6836909,1.64036364 11.7912364,1.872 11.7912364,2.19345455 L11.7912364,3.24527273 C11.7912364,3.60218182 11.7735091,3.67309091 11.3421455,3.67309091 L11.3421455,4.13636364 L12.9399636,4.13636364 L12.9399636,3.67309091 C12.5629636,3.67309091 12.5275091,3.63763636 12.5275091,3.28072727 L12.5275091,2.55036364 C12.5275091,2.05045455 12.7603273,1.62263636 13.2271455,1.62263636 C13.5864182,1.62263636 13.6585091,1.83654545 13.6585091,2.26436364 L13.6585091,3.33390909 C13.6585091,3.63763636 13.6585091,3.67309091 13.2271455,3.67309091 L13.2271455,4.13636364 L14.9868727,4.13636364 L14.9868727,3.67309091 C14.4479636,3.67309091 14.4125091,3.69081818 14.4125091,3.38709091 L14.4125091,2.19345455 C14.4125091,1.51627273 14.2506,1.12390909 13.5509636,1.12390909 C13.1373273,1.12390909 12.8678727,1.28345455 12.5275091,1.64036364 C12.3478727,1.32009091 12.0961455,1.10618182 11.6659636,1.10618182 C11.2168727,1.10618182 10.9119636,1.33781818 10.6602364,1.67581818 L10.6602364,1.19481818 L9.31414545,1.19481818 L9.31414545,1.62263636 C9.85305455,1.62263636 9.90623636,1.64036364 9.90623636,2.06818182 L9.90623636,3.04909091 C9.90623636,3.67309091 9.90623636,3.67309091 9.31414545,3.67309091" id="Fill-38"></path>
              </g>
              <polygon id="Fill-41" fill="#4A4A4A" points="39.2279727 11.7257636 39.2279727 21.5135818 41.9390636 21.5135818 41.9567909 17.7695818 44.5957909 17.7695818 44.5957909 15.5052182 41.9745182 15.5052182 41.9567909 13.9901273 44.7931545 13.9901273 44.7931545 11.7257636"></polygon>
              <path d="M54.3434273,6.0918 L55.5997,6.0918 L55.5997,7.60689091 C55.9412455,7.32207273 56.1563364,7.21452727 56.4978818,7.21452727 C57.2152455,7.21452727 57.6997909,7.85743636 57.6997909,8.74852727 C57.6997909,9.71052727 57.2152455,10.3345273 56.3903364,10.3345273 C55.9944273,10.3345273 55.7438818,10.2104364 55.4744273,9.92443636 L55.2227,10.2636182 L54.8457,10.2636182 L54.8457,7.05498182 C54.8457,6.5728 54.8102455,6.51961818 54.3434273,6.51961818 L54.3434273,6.0918 Z M56.8571545,8.74616364 C56.8571545,8.06898182 56.6054273,7.73098182 56.2473364,7.73098182 C55.7805182,7.73098182 55.5831545,8.10443636 55.5831545,8.80052727 C55.5831545,9.4068 55.8159727,9.81689091 56.2296091,9.81689091 C56.5699727,9.81689091 56.8571545,9.49543636 56.8571545,8.74616364 Z" id="Fill-42" fill="#4A4A4A"></path>
              <path d="M61.5234455,9.76335455 L61.5234455,10.2266273 L63.4628091,10.2266273 L63.4628091,9.76335455 C62.9239,9.76335455 62.8695364,9.78108182 62.8695364,9.35326364 L62.8695364,8.71153636 C62.8695364,8.12299091 63.0669,7.58880909 63.6058091,7.58880909 C63.6412636,7.58880909 63.6779,7.58880909 63.7854455,7.62426364 C63.6058091,7.7129 63.4805364,7.83817273 63.4805364,8.03435455 C63.4805364,8.26599091 63.6589909,8.42553636 63.8929909,8.42553636 C64.1801727,8.42553636 64.3775364,8.21280909 64.3775364,7.89135455 C64.3775364,7.49899091 64.0903545,7.21417273 63.6956273,7.21417273 C63.3718091,7.21417273 63.1389909,7.37371818 62.8518091,7.69517273 L62.8518091,7.28508182 L61.5234455,7.28508182 L61.5234455,7.7129 C61.9902636,7.7129 62.1155364,7.7129 62.1155364,8.10526364 L62.1155364,9.31780909 C62.1155364,9.7279 62.1155364,9.76335455 61.5234455,9.76335455" id="Fill-44" fill="#4A4A4A"></path>
              <path d="M59.0821636,8.83763636 C59.0821636,9.40845455 59.3516182,9.80081818 59.8361636,9.80081818 C60.2675273,9.80081818 60.4648909,9.55027273 60.5369818,9.15909091 L61.0747091,9.15909091 C60.9848909,9.90718182 60.4826182,10.3172727 59.7640727,10.3172727 C58.9025273,10.3172727 58.2560727,9.80081818 58.2560727,8.80218182 C58.2560727,7.89218182 58.8316182,7.215 59.6931636,7.215 C60.5369818,7.215 61.0747091,7.85672727 61.0747091,8.83763636 L59.0821636,8.83763636 Z M59.6931636,7.67590909 C59.3338909,7.67590909 59.1176182,7.92645455 59.1176182,8.372 L60.2486182,8.372 C60.2486182,7.90754545 60.0689818,7.67590909 59.6931636,7.67590909 Z" id="Fill-46" fill="#4A4A4A"></path>
              <path d="M46.0148,8.83763636 C46.0148,9.40845455 46.3019818,9.80081818 46.7865273,9.80081818 C47.2178909,9.80081818 47.4152545,9.55027273 47.4873455,9.15909091 L48.0073455,9.15909091 C47.9175273,9.90718182 47.4329818,10.3172727 46.7144364,10.3172727 C45.8528909,10.3172727 45.1887091,9.80081818 45.1887091,8.80218182 C45.1887091,7.89218182 45.7819818,7.215 46.6435273,7.215 C47.4873455,7.215 48.0073455,7.85672727 48.0073455,8.83763636 L46.0148,8.83763636 Z M46.6435273,7.67590909 C46.2842545,7.67590909 46.0691636,7.92645455 46.0691636,8.372 L47.1812545,8.372 C47.1812545,7.88981818 47.0016182,7.67590909 46.6435273,7.67590909 Z" id="Fill-48" fill="#4A4A4A"></path>
              <polygon id="Fill-51" fill="#4A4A4A" points="54.0386364 21.5138182 56.7497273 21.5138182 56.7497273 11.726 54.0386364 11.726"></polygon>
              <path d="M31.0581818,-4.19866162e-15 L31.0581818,27.6545455" id="Stroke-52" stroke="#4A4A4A" stroke-width="0.5"></path>
          </g>
      </g>
  </g>
</svg>