<svg viewBox="0 0 450 65" version="1.1" xmlns="http://www.w3.org/2000/svg" xmlns:xlink="http://www.w3.org/1999/xlink">
    <g id="Landing" stroke="none" stroke-width="1" fill="none" fill-rule="evenodd">
        <g id="Artboard" transform="translate(-776.000000, -61.000000)" fill-rule="nonzero">
            <g id="adir_oneline_grn&amp;white_banklocal" transform="translate(776.328432, 61.636632)">
                <g id="Group">
                    <path d="M30.5995135,61.5107368 C47.5003784,61.5107368 61.2007027,47.7406316 61.2007027,30.7553684 C61.2007027,13.7701053 47.5003784,0 30.5995135,0 C13.6986486,0 0,13.7701053 0,30.7553684 C0.00167567568,47.7423158 13.7003243,61.5107368 30.5995135,61.5107368 Z" id="Shape" fill="#006F53"></path>
                    <path d="M22.1457297,60.6922105 L22.0116757,37.5612632 C22.0116757,37.5612632 21.3548108,37.3018947 21.3866486,38.6728421 C21.3866486,38.6728421 21.2877838,38.9978947 20.6962703,38.8362105 C20.6962703,38.8362105 20.4633514,38.9002105 20.4633514,39.0972632 C20.4633514,39.2926316 19.406,39.0315789 19.4428649,38.1507368 C19.4428649,38.1507368 18.8798378,38.3444211 18.8144865,37.7263158 C18.8144865,37.7263158 18.8144865,37.3658947 19.4076757,37.1048421 C19.4076757,37.1048421 21.1570811,37.2682105 21.2894595,36.7141053 C21.2894595,36.7141053 21.5843784,36.1583158 20.4968649,36.4530526 L19.7712973,36.4193684 C19.7712973,36.4193684 19.5082162,36.224 19.3088108,36.4193684 C19.3088108,36.4193684 18.7156216,37.3658947 17.8593514,36.5170526 C17.8593514,36.5170526 16.6059459,36.224 17.8593514,35.7018947 C17.8593514,35.7018947 18.2531351,35.6362105 18.1224324,35.2774737 C18.1224324,35.2774737 18.6837838,34.688 19.0122162,34.7216842 C19.0122162,34.7216842 19.0775676,34.3309474 19.6070811,34.4589474 C19.6070811,34.4589474 20.0678919,34.0682105 21.2559459,34.2652632 C21.2559459,34.2652632 21.6178919,33.6757895 20.6610811,33.8391579 C20.6610811,33.8391579 20.2019459,34.3949474 19.7377838,34.0682105 C19.7377838,34.0682105 19.0775676,34.7890526 18.2883243,34.1995789 C18.2883243,34.1995789 17.3985405,34.3629474 17.4303784,33.6437895 C17.4303784,33.6437895 16.672973,34.1338947 16.8371892,32.5338947 C16.8371892,32.5338947 13.9014054,33.1873684 14.265027,31.7170526 C14.265027,31.7170526 14.2968649,29.9856842 17.1991351,29.6252632 C17.1991351,29.6252632 17.726973,29.5595789 17.8911892,29.2008421 C17.8911892,29.2008421 18.5815676,29.1671579 19.4428649,29.6572632 C19.4428649,29.6572632 20.0025405,29.6892632 20.3661622,30.8328421 C20.7281081,31.9764211 21.3212973,30.8985263 21.1905946,30.8008421 C21.1905946,30.8008421 20.3661622,30.3444211 20.6610811,29.4602105 C20.6610811,29.4602105 19.4747027,30.1153684 19.7059459,28.8404211 C19.7059459,28.8404211 19.3775135,28.7090526 19.2786486,28.384 C19.2786486,28.384 19.1781081,27.5014737 19.6405946,27.2067368 C19.6405946,27.2067368 19.8064865,27.4357895 19.8383243,26.5532632 C19.8383243,26.5532632 20.5957297,26.3242105 20.1030811,25.8677895 C20.1030811,25.8677895 19.5098919,25.4416842 19.3758378,26.1928421 C19.3758378,26.1928421 18.1877838,26.7166316 18.7491351,25.2126316 C18.7491351,25.2126316 17.9565405,26.4858947 17.2661622,25.6690526 L16.9360541,25.6690526 C16.9360541,25.6690526 15.4514054,26.3562105 16.0781081,24.4277895 C16.0781081,24.4277895 14.7593514,26.1591579 15.1212973,23.9713684 C15.1212973,23.9713684 16.0781081,22.5330526 18.1877838,23.3178947 C18.1877838,23.3178947 19.0122162,23.0888421 19.8718378,23.5469474 C19.8718378,23.5469474 20.1332432,23.808 20.7951351,23.808 C20.7951351,23.808 21.0565405,23.4812632 20.5622162,23.4155789 C20.5622162,23.4155789 19.1127568,23.5469474 19.7042703,22.4690526 C19.7042703,22.4690526 20.0678919,21.8812632 19.9371892,21.5545263 C19.9371892,21.5545263 19.0474054,21.7835789 18.6485946,20.8690526 C18.6485946,20.8690526 18.3855135,20.4446316 18.0872432,20.5423158 C18.0872432,20.5423158 17.0332432,20.8050526 16.7031351,20.2475789 C16.7031351,20.2475789 16.3093514,20.2155789 16.1434595,19.9545263 C16.1434595,19.9545263 14.3957297,20.4109474 15.3843784,19.04 C15.3843784,19.04 14.9235676,17.6353684 16.8371892,18.1911579 C16.8371892,18.1911579 17.2963243,17.8324211 16.5389189,17.5056842 C16.5389189,17.5056842 15.4514054,18.4522105 14.9218919,18.0277895 C14.9218919,18.0277895 14.5582703,17.6370526 15.7798378,16.9178947 C15.7798378,16.9178947 14.0991351,16.6888421 15.6491351,15.872 C15.6491351,15.872 16.0781081,15.6109474 16.7366486,15.6429474 C16.7366486,15.6429474 17.3968649,15.6092632 17.6264324,16.1347368 C17.6264324,16.1347368 18.0537297,16.0353684 18.0537297,15.9056842 L18.5145405,15.9056842 C18.5145405,15.9056842 18.8128108,15.7086316 19.1764324,15.7086316 C19.5400541,15.7086316 19.5718919,15.3818947 20.0008649,16.0673684 C20.0008649,16.0673684 19.7025946,16.5911579 18.8781622,16.3284211 C18.8781622,16.3284211 18.2514595,16.3284211 18.8128108,16.6871579 C18.8128108,16.6871579 20.0008649,17.536 18.7474595,18.0581053 C18.7474595,18.0581053 18.6167568,18.5145263 19.5065405,18.5145263 C19.5065405,18.5145263 20.0997297,18.6458947 20.2974595,18.8092632 C20.2974595,18.8092632 19.9355135,18.4488421 20.0662162,18.0901053 C20.0662162,18.0901053 19.834973,17.3069474 20.956,17.5343158 C20.956,17.5343158 21.8139459,17.6976842 21.4821622,16.2610526 C21.4821622,16.2610526 18.9435135,16.2947368 21.0531892,15.1174737 C21.0531892,15.1174737 20.0327027,14.528 19.9338378,14.464 C19.9338378,14.464 19.0742162,14.6273684 18.91,14.8884211 C18.91,14.8884211 17.8895135,15.4122105 18.0202162,14.496 C18.0202162,14.496 18.481027,14.3663158 18.481027,14.2029474 C18.481027,14.2029474 18.5480541,13.9098947 18.977027,13.8105263 L19.9673514,13.8442105 C19.9673514,13.8442105 20.3628108,13.3541053 20.5605405,13.3541053 C20.5605405,13.3541053 21.4503243,13.0593684 21.023027,12.864 C21.023027,12.864 20.4935135,12.8303158 20.4935135,12.4395789 C20.4935135,12.4395789 20.7247568,11.9494737 21.3179459,12.0808421 C21.3179459,12.0808421 21.5491892,11.8197895 21.2844324,11.5250526 C21.2844324,11.5250526 20.9208108,11.4913684 20.9543243,11.3616842 C20.9543243,11.3616842 20.4935135,11.4273684 20.2941081,11.2623158 C20.2941081,11.2623158 19.7327568,11.9174737 19.4026486,11.7541053 C19.4026486,11.7541053 18.8094595,13.5174737 17.292973,12.768 C17.292973,12.768 17.2611351,12.6366316 17.0298919,12.5052632 C17.0298919,12.5052632 16.8338378,12.2122105 16.9963784,11.9494737 L17.1941081,11.9814737 C17.1941081,11.9814737 17.0617297,11.5250526 18.0503784,11.5907368 C18.0503784,11.5907368 18.3151351,11.5907368 18.2832973,10.9692632 C18.2832973,10.9692632 18.2832973,10.4791579 18.9435135,10.6745263 C18.9435135,10.6745263 19.2736216,10.8378947 19.4696757,9.98905263 C19.4696757,9.98905263 19.8332973,9.20589474 20.9208108,9.40126316 C20.9208108,9.40126316 20.46,8.77978947 20.4264865,8.22568421 C20.4264865,8.22568421 20.031027,7.47452632 20.5253514,7.11410526 C20.5253514,7.11410526 20.6929189,6.85305263 20.6258919,6.42694737 C20.6258919,6.42694737 19.9656757,6.36294737 20.2287568,5.64378947 C20.2287568,5.64378947 21.023027,4.95831579 21.2207568,5.97052632 C21.2207568,5.97052632 22.077027,6.68968421 22.1105405,5.93684211 C22.1105405,5.93684211 22.3736216,5.088 21.3514595,5.25136842 C21.3514595,5.25136842 20.7582703,5.31705263 21.0531892,4.33684211 C21.0531892,4.33684211 21.2861081,4.37052632 21.3179459,3.87873684 C21.3179459,3.87873684 22.5713514,3.61768421 22.438973,3.29094737 L22.7355676,3.22526316 C22.7355676,3.22526316 22.934973,2.90021053 23.0656757,3.19326316 C23.0656757,3.19326316 23.3287568,3.45431579 23.2298919,3.58568421 C23.2298919,3.58568421 24.0543243,3.52 24.0241622,3.71536842 C24.0241622,3.71536842 24.4832973,3.52 24.5821622,4.04210526 C24.5821622,4.04210526 26.2645405,4.20547368 24.9776216,4.89094737 C24.9776216,4.89094737 25.042973,5.44673684 24.4514595,5.38105263 C24.4514595,5.38105263 24.4514595,5.93684211 24.0241622,5.87115789 C24.0241622,5.87115789 23.1327027,6.62231579 24.1548649,6.29557895 L24.5168108,6.09852632 C24.5168108,6.09852632 25.7702162,5.02063158 25.9344324,5.54273684 C25.9344324,5.54273684 26.2980541,5.83578947 25.6395135,6.06484211 C25.6395135,6.06484211 24.6827027,6.65431579 24.484973,6.94736842 C24.484973,6.94736842 24.2537297,7.47115789 23.8247568,7.47115789 C23.8247568,7.47115789 22.8344324,8.05894737 23.4963243,8.12463158 C23.4963243,8.12463158 23.8599459,8.288 23.7945946,8.38568421 L24.056,8.35368421 C24.056,8.35368421 24.5503243,7.86357895 25.0446486,8.22231579 C25.0446486,8.22231579 25.5071351,8.61305263 24.7832432,8.84378947 C24.7832432,8.84378947 24.8485946,9.04084211 24.2202162,8.97347368 C24.2202162,8.97347368 23.7627568,9.66063158 23.3321081,9.10484211 C23.3321081,9.10484211 23.069027,8.87578947 23.002,9.36589474 C23.002,9.36589474 22.872973,9.88968421 23.2667568,9.88968421 C23.2667568,9.88968421 23.7627568,10.0867368 23.5951892,10.2164211 C23.5951892,10.2164211 24.1213514,10.3141053 24.1565405,10.4774737 C24.1565405,10.4774737 25.0798378,10.6728421 25.3764324,10.3797895 C25.3764324,10.3797895 26.0383243,9.75831579 26.3667568,10.0210526 C26.3667568,10.0210526 26.6951892,10.3477895 25.7400541,10.7402105 C25.7400541,10.7402105 25.6747027,11.0012632 24.980973,11.0012632 C24.980973,11.0012632 24.5201622,11.0669474 24.4548108,11.1326316 C24.4548108,11.1326316 24.2218919,11.4273684 24.2218919,11.6227368 C24.2218919,11.6227368 24.1582162,12.1448421 23.3672973,11.7541053 C22.5747027,11.3616842 23.3321081,11.6564211 23.3321081,11.6564211 C23.3321081,11.6564211 22.3099459,11.9174737 22.8059459,12.5709474 L24.0258378,12.6349474 C24.0258378,12.6349474 24.5184865,12.6686316 24.4196216,13.1250526 C24.4196216,13.1250526 24.484973,13.6151579 24.3525946,13.8105263 C24.3525946,13.8105263 24.4196216,14.3343158 24.7497297,14.2686316 C24.7497297,14.2686316 25.673027,14.3343158 25.606,14.6273684 C25.606,14.6273684 25.7065405,15.1831579 26.0014595,15.3785263 C26.0014595,15.3785263 26.3650811,16.8151579 24.9792973,16.5541053 C24.9792973,16.5541053 24.1213514,16.5204211 23.9906486,15.2808421 C23.9906486,15.2808421 23.6605405,14.528 23.4628108,14.6913684 C23.4628108,14.6913684 23.3974595,15.0837895 23.5616757,15.2808421 C23.5616757,15.2808421 23.6957297,15.6715789 23.1327027,15.4105263 C23.1327027,15.4105263 22.573027,15.2471579 22.573027,15.4762105 L22.6065405,17.1755789 C22.6065405,17.1755789 23.4644865,17.3069474 23.6605405,17.5023158 C23.6605405,17.5023158 24.9474595,17.4703158 24.8821081,18.2214737 C24.8821081,18.2214737 25.1451892,18.5802105 25.5088108,18.2551579 C25.5088108,18.2551579 26.0701622,17.8627368 26.4991351,18.4842105 C26.4991351,18.4842105 27.0588108,18.6475789 27.0588108,18.4842105 C27.0588108,18.4842105 27.5548108,18.0244211 27.7207027,18.8109474 C27.7207027,18.8109474 27.6536757,19.2673684 27.8514054,19.3650526 C27.8514054,19.3650526 28.0474595,20.0522105 27.1593514,20.1498947 C27.1593514,20.1498947 27.1593514,19.9208421 26.8962703,19.9865263 C26.8962703,19.9865263 26.7622162,19.4964211 26.5008108,19.6597895 C26.5008108,19.6597895 26.3349189,19.8888421 26.0048108,19.8888421 C26.0048108,19.8888421 25.0815135,19.9865263 24.9172973,19.8231579 C24.9172973,19.8231579 24.2570811,19.6261053 24.3241081,19.4964211 C24.3894595,19.3650526 24.2570811,19.3987368 24.2570811,19.3987368 C24.2570811,19.3987368 23.7309189,19.4644211 23.8632973,19.7254737 C23.8632973,19.7254737 23.0707027,20.1498947 23.8632973,20.0842105 C23.8632973,20.0842105 24.4564865,20.3452632 24.422973,20.608 C24.422973,20.608 25.2809189,20.9027368 25.1485405,21.0324211 C25.1485405,21.0324211 25.972973,21.0981053 25.544,22.5347368 C25.544,22.5347368 25.2474054,24.0370526 24.5218378,23.6463158 C24.5218378,23.6463158 23.6337297,24.1027368 23.1695676,23.6783158 C23.1695676,23.6783158 22.8076216,23.744 22.8076216,23.8416842 C22.8076216,23.8416842 23.368973,24.2661053 23.2349189,24.3974737 C23.2349189,24.3974737 23.7979459,24.4951579 23.8968108,24.2661053 C23.8968108,24.2661053 24.1950811,23.8753684 24.5871892,23.8753684 C24.5871892,23.8753684 25.3797838,23.5806316 25.7098919,24.2021053 C25.7098919,24.2021053 25.972973,24.3334737 26.0064865,25.0509474 C26.0064865,25.0509474 26.5996757,25.5747368 26.0064865,25.8021053 L25.8405946,26.0951579 C25.8405946,26.0951579 26.5024865,25.8677895 26.5996757,26.6509474 C26.5996757,26.6509474 27.161027,26.88 26.6985405,27.5974737 L26.3701081,27.6631579 C26.3701081,27.6631579 26.2695676,28.1195789 25.2490811,27.4997895 C25.2490811,27.4997895 25.115027,27.1730526 24.918973,27.3027368 C24.918973,27.3027368 24.6558919,26.976 24.3911351,26.912 C24.3911351,26.912 24.061027,26.6829474 24.061027,27.1073684 C24.061027,27.1073684 24.3576216,27.4661053 23.5348649,27.4997895 C23.5348649,27.4997895 23.8314595,27.8905263 23.6655676,28.0218947 C23.6655676,28.0218947 24.3274595,29.1334737 24.8201081,29.0357895 C24.8201081,29.0357895 25.5456757,29.2328421 25.5456757,30.1153684 C25.5456757,30.1153684 26.107027,30.9322105 25.8422703,31.2252632 C25.8422703,31.2252632 26.2058919,31.6176842 25.8422703,31.8787368 C25.8422703,31.8787368 25.7769189,32.4345263 25.2490811,31.8450526 L24.061027,31.8113684 C24.061027,31.8113684 24.3257838,32.1381053 24.3911351,32.3671579 C24.3911351,32.3671579 25.1485405,32.6938947 25.1820541,33.3170526 C25.1820541,33.3170526 25.115027,33.8071579 24.6558919,33.7414737 C24.6558919,33.7414737 24.2252432,34.2972632 23.9973514,34.2652632 C23.9973514,34.2652632 24.4916757,34.624 24.6558919,34.5246316 C24.6558919,34.5246316 24.9843243,34.3612632 25.2172432,34.624 C25.2172432,34.624 25.9411351,34.3949474 26.0081622,35.0804211 C26.0081622,35.0804211 26.6683784,35.7995789 25.9411351,36.0943158 C25.9411351,36.0943158 25.5473514,36.16 25.5473514,36.2913684 C25.5473514,36.2913684 25.1837297,36.4210526 24.9524865,36.2256842 C24.9524865,36.2256842 24.4581622,36.2576842 24.3928108,36.0606316 C24.3928108,36.0606316 23.7342703,36.1263158 23.7342703,35.9612632 C23.7342703,35.9612632 23.4058378,35.8955789 23.4376757,35.7978947 C23.4376757,35.7978947 23.1394054,35.7978947 23.3052973,36.0926316 C23.3052973,36.0926316 23.4711892,36.0926316 23.503027,36.2576842 C23.503027,36.2576842 23.932,36.192 23.932,36.3873684 C23.932,36.3873684 24.4581622,36.4850526 24.4263243,36.6821053 C24.4263243,36.6821053 25.0195135,36.6484211 24.986,36.8454737 C24.986,36.8454737 25.2507568,36.9094737 25.1837297,37.1402105 C25.1837297,37.1402105 25.6127027,37.3355789 25.5808649,37.8896842 C25.5808649,37.8896842 26.107027,38.0547368 26.0416757,38.3797895 C26.0416757,38.3797895 26.1723784,38.9035789 25.3144324,38.7418947 L25.115027,38.5448421 L24.8536216,38.5111579 C24.8536216,38.5111579 24.1615676,38.0867368 24.2252432,37.9553684 C24.2939459,37.8256842 24.2604324,37.8576842 24.2604324,37.8576842 C24.2604324,37.8576842 23.503027,38.0867368 23.3052973,37.5629474 L23.1394054,37.792 L23.2985946,61.0846316 L22.1457297,60.6922105 Z" id="Shape" fill="#FFFFFF"></path>
                    <path d="M36.146,62.3208421 L36.146,45.5073684 L35.3215676,45.5073684 C35.3215676,45.5073684 35.2227027,45.6757895 35.0601622,45.6757895 C35.0601622,45.6757895 35.2562162,45.9115789 34.8607568,45.9435789 C34.8607568,45.9435789 34.5993514,46.112 34.7300541,46.2130526 L34.105027,46.2130526 C34.105027,46.2130526 33.7095676,47.0854737 32.916973,46.4791579 C32.916973,46.4791579 32.5533514,46.4791579 32.8516216,45.9098947 C32.8516216,45.9098947 33.1147027,45.8425263 32.916973,45.4063158 C32.916973,45.4063158 33.0811892,44.9364211 33.3459459,44.8707368 C33.3459459,44.8707368 34.038,43.9629474 34.5675135,43.9629474 C34.5675135,43.9629474 35.3902703,44.0303158 35.3902703,43.7288421 C35.3902703,43.7288421 35.7857297,43.3583158 35.9516216,43.4256842 C35.9516216,43.4256842 36.3470811,43.0568421 36.016973,42.7553684 L35.1925405,42.688 C35.1925405,42.688 34.9948108,43.3263158 34.2692432,43.0905263 C34.2692432,43.0905263 33.5118378,42.6206316 34.466973,41.8829474 C34.466973,41.8829474 34.7954054,42.016 34.5993514,41.3456842 C34.4016216,40.672 34.5004865,41.2783158 34.5004865,41.2783158 C34.5004865,41.2783158 34.2357297,40.7090526 35.024973,40.3738947 C35.024973,40.3738947 36.2448649,40.3048421 35.8845946,40.1717895 C35.8845946,40.1717895 36.3118919,39.6665263 35.6516757,39.7692632 C35.6516757,39.7692632 35.4556216,39.7018947 35.1238378,39.8703158 C35.1238378,39.8703158 34.2005405,40.0404211 34.1687027,39.7692632 C34.1687027,39.7692632 33.6743784,39.5688421 33.7732432,39.3667368 L33.6743784,38.7957895 C33.6743784,38.7957895 33.9692973,38.56 33.7078919,38.1911579 C33.7078919,38.1911579 33.2789189,37.9250526 33.3107568,37.5208421 C33.3107568,37.5208421 33.3777838,37.0863158 33.6408649,37.0863158 C33.6408649,37.0863158 35.024973,37.12 35.024973,36.8168421 C35.024973,36.8168421 35.3534054,36.7174737 35.3215676,36.0454737 C35.3215676,36.0454737 35.4237838,35.7103158 35.1255135,35.2387368 C35.1255135,35.2387368 35.159027,34.8682105 35.2562162,34.9052632 L35.2227027,34.7031579 L35.024973,34.6677895 C35.024973,34.6677895 35.0601622,34.9709474 34.6965405,34.8362105 C34.6965405,34.8362105 34.4334595,35.0046316 34.3999459,35.2387368 C34.3999459,35.2387368 34.0363243,35.3061053 34.0715135,35.2050526 C34.105027,35.104 34.0363243,35.104 34.0363243,35.104 C34.0363243,35.104 34.1351892,35.5402105 33.7078919,35.5048421 C33.7078919,35.5048421 33.6408649,36.0084211 33.1147027,35.6395789 C33.1147027,35.6395789 32.8516216,35.4711579 32.6187027,35.7406316 L32.3204324,35.6075789 C32.3204324,35.6075789 32.059027,35.5402105 32.2550811,34.8682105 C32.2550811,34.8682105 32.4226486,34.5330526 32.6857297,34.4336842 C32.6857297,34.4336842 32.7510811,33.8290526 33.2789189,33.9301053 C33.2789189,33.9301053 33.474973,33.6926316 33.1800541,33.4922105 C33.1800541,33.4922105 32.8817838,33.4922105 33.0778378,33.0223158 L33.0124865,32.2846316 C33.0124865,32.2846316 33.2102162,31.8147368 33.4732973,31.8821053 L33.8369189,31.7136842 C33.8369189,31.7136842 33.9676216,31.5115789 34.2658919,31.5789474 C34.2658919,31.5789474 34.2977297,31.2774737 34.2005405,31.2101053 C34.2005405,31.2101053 33.4732973,31.1764211 33.6073514,30.7738947 C33.6073514,30.7738947 33.8385946,29.9014737 33.2454054,30.304 C33.2454054,30.304 32.9471351,30.2703158 32.7158919,30.4724211 C32.4846486,30.6745263 32.617027,30.4724211 32.617027,30.4724211 C32.617027,30.4724211 32.5835135,30.8749474 32.1880541,30.4387368 C32.1880541,30.4387368 31.8931351,30.4387368 31.9903243,30.1709474 C31.9903243,30.1709474 31.9903243,29.6673684 32.2215676,29.6673684 C32.2215676,29.6673684 32.4846486,29.3658947 33.2454054,29.4652632 L33.4414595,29.2311579 C33.4414595,29.2311579 33.9676216,28.4917895 34.3329189,28.4917895 C34.3329189,28.4917895 34.5306486,28.224 34.7267027,28.2576842 C34.7267027,28.2576842 35.1221622,27.3852632 35.5192973,27.4189474 C35.5192973,27.4189474 35.7153514,27.2505263 34.9579459,27.2505263 L34.4636216,27.2168421 L34.3630811,27.2168421 C34.3630811,27.2168421 34.4636216,27.4509474 34.0681622,27.3515789 C34.0681622,27.3515789 34.2642162,27.6884211 33.2085405,27.4863158 C33.2085405,27.4863158 32.9454595,27.3178947 32.6471892,27.7557895 C32.6471892,27.7557895 32.2852432,28.0235789 32.1863784,28.0572632 C32.1863784,28.0572632 31.8579459,28.3587368 31.6602162,27.8905263 L31.6602162,26.8496842 C31.6602162,26.8496842 31.9886486,26.4791579 31.9568108,26.3797895 C31.9568108,26.3797895 32.6488649,26.2787368 32.5181622,26.2113684 C32.5181622,26.2113684 33.2772432,26.144 33.4079459,26.2787368 L33.9357838,26.2113684 C33.9357838,26.2113684 34.3630811,26.2450526 34.4636216,25.6741053 C34.4636216,25.6741053 34.7267027,25.2378947 35.1221622,25.2715789 C35.1221622,25.2715789 35.582973,25.2042105 35.4204324,25.0694737 C35.4204324,25.0694737 35.5511351,24.8353684 35.6818378,24.9010526 C35.6818378,24.9010526 36.275027,24.6332632 35.8142162,24.5322105 C35.8142162,24.5322105 35.1875135,24.5995789 35.7807027,23.9275789 C35.7807027,23.9275789 36.0772973,23.2572632 35.7136757,23.1208421 C35.7136757,23.1208421 35.4824324,22.9187368 35.3182162,23.7928421 C35.3182162,23.7928421 35.2863784,24.3621053 34.725027,24.4294737 C34.725027,24.4294737 34.1653514,25.2008421 33.536973,24.3621053 L33.4062703,23.4223158 C33.4062703,23.4223158 33.7045405,23.3886316 33.671027,22.9861053 L33.7045405,22.1810526 C33.7045405,22.1810526 33.6375135,21.6101053 34.1988649,21.6101053 C34.1988649,21.6101053 34.6278378,21.1402105 33.9357838,21.1738947 C33.9357838,21.1738947 33.5386486,21.4753684 32.9454595,21.1065263 C32.3522703,20.7376842 32.8465946,21.0728421 32.8465946,21.0728421 C32.8465946,21.0728421 32.2517297,21.0054737 32.2852432,20.6029474 L32.3841081,20.2341053 C32.3841081,20.2341053 32.2182162,19.6968421 32.8130811,19.7305263 C32.8130811,19.7305263 33.3744324,19.6631579 33.5386486,19.8989474 C33.5386486,19.8989474 34.0028108,20.0673684 34.0346486,19.9663158 C34.0346486,19.9663158 34.4301081,19.7322105 34.6278378,19.8989474 C34.6278378,19.8989474 34.0028108,19.4290526 34.6278378,19.0922105 C34.6278378,19.0922105 35.0886486,18.8244211 33.9005946,18.8581053 C33.9005946,18.8581053 33.6375135,19.0922105 33.536973,18.4218947 C33.536973,18.4218947 33.5721622,17.8846316 34.3312432,18.0530526 C34.3312432,18.0530526 34.6278378,18.2871579 34.8892432,17.952 C34.8892432,17.952 35.0216216,17.6842105 35.2193514,17.7178947 C35.2193514,17.7178947 35.3852432,17.2143158 35.6148108,17.2816842 C35.6148108,17.2816842 35.9784324,17.1486316 35.8795676,16.7781053 C35.8795676,16.7781053 35.6466486,16.7781053 35.5159459,16.9128421 C35.5159459,16.9128421 35.2176757,16.8471579 34.8255676,16.4092632 C34.8255676,16.4092632 34.2307027,16.2425263 34.7233514,15.7389474 L35.4807568,15.6715789 L35.6131351,15.5031579 L35.7438378,15.5368421 C35.7438378,15.5368421 35.8778919,15.0332632 35.3483784,14.8665263 C35.3483784,14.8665263 35.1523243,14.7991579 34.8875676,14.464 L34.4602703,14.3292632 C34.4602703,14.3292632 33.8670811,13.4231579 34.658,13.6252632 C34.658,13.6252632 34.9864324,13.6252632 35.1188108,13.8273684 C35.1188108,13.8273684 35.4489189,13.9621053 35.4170811,14.0968421 C35.4170811,14.0968421 35.6131351,13.9284211 35.7438378,13.9284211 C35.7438378,13.9284211 35.3483784,13.7936842 35.3818919,13.5258947 C35.3818919,13.5258947 35.5477838,13.2564211 35.6784865,13.2901053 L35.7438378,13.1890526 L35.9432432,13.2564211 C35.9432432,13.2564211 36.4694054,12.9549474 35.9080541,12.7528421 C35.9080541,12.7528421 35.7421622,12.6517895 35.3467027,12.5187368 C35.3467027,12.5187368 34.7551892,12.7865263 34.787027,12.0825263 C34.787027,12.0825263 35.1506486,11.2437895 35.3802162,11.1090526 C35.3802162,11.1090526 35.6768108,10.9069474 35.841027,11.1090526 L35.9734054,11.0416842 C35.9734054,11.0416842 35.841027,10.7065263 35.8745405,10.3713684 C35.8745405,10.3713684 36.0705946,9.46526316 36.6319459,10.1018947 C36.6319459,10.1018947 36.9603784,10.2029474 37.0609189,10.7385263 C37.1614595,11.2757895 37.0927568,10.8395789 37.0927568,10.8395789 C37.0927568,10.8395789 37.4245405,11.0736842 37.391027,11.2757895 C37.391027,11.2757895 37.8551892,11.6463158 37.8216757,11.3768421 L37.9188649,11.7456842 L38.0529189,11.8130526 L38.0194054,12.0808421 C38.0194054,12.0808421 38.3143243,11.8787368 38.248973,12.5507368 C38.248973,12.5507368 38.2824865,12.9869474 38.6444324,12.9869474 C38.6444324,12.9869474 39.0080541,12.9532632 38.941027,13.2547368 C38.941027,13.2547368 39.2694595,13.3574737 38.7751351,13.8930526 C38.7751351,13.8930526 38.5455676,14.0951579 38.7751351,14.2618947 C38.7751351,14.2618947 40.3268108,15.1343158 39.0398919,15.9393684 L38.3813514,16.0404211 L38.3478378,16.9465263 C38.3478378,16.9465263 39.0382162,16.7781053 39.4018378,17.2816842 C39.7637838,17.7852632 39.5007027,17.3827368 39.5007027,17.3827368 C39.5007027,17.3827368 39.8291351,17.8189474 39.9296757,17.7852632 C39.9296757,17.7852632 40.2932973,17.8526316 40.2597838,18.0530526 C40.2597838,18.0530526 41.0507027,18.1541053 40.8848108,18.4892632 C40.8848108,18.4892632 40.9535135,18.8917895 41.2149189,18.9254737 C41.2149189,18.9254737 41.6438919,18.9591579 41.6103784,19.1949474 C41.6103784,19.1949474 42.0711892,18.9591579 42.1365405,19.8652632 C42.1365405,19.8652632 42.3325946,20.8050526 41.1160541,20.8050526 C41.1160541,20.8050526 40.6870811,21.1738947 40.1894054,20.8387368 C40.1894054,20.8387368 39.6950811,20.5355789 39.7285946,20.0673684 C39.7285946,20.0673684 39.499027,19.8989474 39.4018378,19.4644211 C39.4018378,19.4644211 38.9041622,18.7924211 38.445027,19.1275789 C38.445027,19.1275789 38.0177297,19.2269474 37.8535135,19.4964211 L37.9155135,19.6311579 C37.9155135,19.6311579 38.8052973,19.7322105 38.9041622,20.1010526 C38.9041622,20.1010526 39.4018378,20.4698947 38.6092432,20.6383158 L38.5757297,20.8404211 C38.5757297,20.8404211 39.0047027,20.7056842 39.2007568,21.2412632 L40.0905405,21.4096842 C40.0905405,21.4096842 40.6200541,21.4096842 40.8831351,22.0143158 C41.1462162,22.6172632 40.9166486,22.1153684 40.9166486,22.1153684 L40.8831351,22.0143158 C40.8831351,22.0143158 41.478,22.3494737 41.2467568,22.7856842 C41.2467568,22.7856842 41.1814054,23.2892632 40.3234595,22.8867368 C40.3234595,22.8867368 40.2581081,22.6509474 39.6314054,22.5515789 L39.2359459,22.4842105 C39.2359459,22.4842105 38.9041622,22.1153684 38.5757297,22.6526316 C38.5757297,22.6526316 38.7399459,23.3246316 39.3331351,23.2572632 C39.3331351,23.2572632 39.860973,23.1225263 39.860973,23.3583158 C39.860973,23.3583158 40.9501622,23.1225263 41.1797297,23.6597895 C41.1797297,23.6597895 41.5751892,23.7608421 41.8734595,23.4593684 L43.0263243,23.4256842 L43.157027,23.6934737 L43.4217838,23.7608421 C43.4217838,23.7608421 43.7854054,24.2307368 43.5206486,24.5658947 C43.5206486,24.5658947 43.4871351,24.9010526 43.8842703,25.0357895 C43.8842703,25.0357895 44.7087027,25.4046316 44.1456757,26.0429474 C44.1456757,26.0429474 43.5206486,26.6795789 42.9274595,25.6404211 L42.7615676,25.5730526 L42.7615676,25.3709474 L42.4984865,25.4046316 C42.4984865,25.4046316 42.2354054,26.1103158 41.2785946,26.2770526 C41.2785946,26.2770526 40.6183784,26.2433684 40.418973,26.0749474 L40.057027,26.0412632 C40.057027,26.0412632 39.5291892,25.8054737 39.4956757,25.3035789 C39.4956757,25.3035789 39.6598919,24.6315789 39.8911351,24.5322105 L39.4956757,24.3637895 L39.4956757,24.2290526 L39.0013514,24.2627368 C39.0013514,24.2627368 38.8991351,24.5322105 38.6058919,24.4311579 C38.6058919,24.4311579 38.6058919,24.6989474 38.1450811,24.5658947 C38.1450811,24.5658947 38.3444865,24.9010526 38.1450811,25.0021053 C38.1450811,25.0021053 38.6712432,25.0694737 38.5405405,25.2378947 C38.5405405,25.2378947 39.1002162,24.9347368 39.3314595,25.5730526 L39.1990811,25.7397895 C39.1990811,25.7397895 39.3984865,26.4117895 38.8036216,26.4454737 C38.8036216,26.4454737 38.6394054,26.9490526 38.4768649,26.9490526 L39.4001622,26.9490526 C39.4001622,26.9490526 39.499027,26.5465263 40.6217297,26.7806316 C40.6217297,26.7806316 41.1462162,26.3444211 41.5768649,26.3444211 C41.5768649,26.3444211 41.906973,26.1086316 42.1700541,26.1423158 L42.3041081,26.0075789 L42.9626486,26.0412632 C42.9626486,26.0412632 43.3564324,26.2753684 43.3564324,26.6122105 C43.3564324,26.6122105 44.3132432,27.4846316 43.3916216,27.7861053 C43.3916216,27.7861053 42.9308108,28.1212632 42.599027,27.4172632 L42.2370811,27.3835789 C42.2370811,27.3835789 41.974,27.552 41.7410811,27.5183158 C41.7410811,27.5183158 41.6757297,27.9882105 41.2819459,27.9882105 C41.2819459,27.9882105 41.2819459,28.2896842 40.7524324,28.2223158 C40.7524324,28.2223158 40.8512973,28.5928421 40.3251351,28.3907368 C40.3251351,28.3907368 40.2597838,28.6922105 39.9296757,28.5574737 C39.9296757,28.5574737 39.8291351,28.8926316 40.2262703,28.928 C40.2262703,28.928 40.6887568,29.0290526 40.4893514,29.4635789 L41.6438919,29.5646316 C41.6438919,29.5646316 41.8432973,29.5983158 42.0393514,29.8661053 C42.0393514,29.8661053 43.4552973,29.7650526 43.3916216,30.5364211 L43.3564324,31.3077895 C43.3564324,31.3077895 44.3467568,31.9781053 43.8842703,32.6164211 C43.8842703,32.6164211 43.4234595,32.9852632 43.0263243,32.3806316 C43.0263243,32.3806316 42.8604324,32.0791579 42.5655135,31.9107368 C42.5655135,31.9107368 42.1047027,31.744 41.8751351,31.6412632 C41.8751351,31.6412632 41.6757297,31.5065263 41.7075676,31.8433684 C41.7075676,31.8433684 42.103027,31.8770526 42.0711892,32.0454737 L42.6325405,32.1465263 C42.6325405,32.1465263 43.0615135,32.5153684 43.0263243,32.7174737 C43.0263243,32.7174737 43.7854054,33.6892632 42.8285946,33.8593684 C42.8285946,33.8593684 42.5655135,34.1928421 42.0376757,33.792 L41.5768649,33.8256842 C41.5768649,33.8256842 41.5098378,34.0614737 41.2132432,33.9604211 C41.2132432,33.9604211 41.0825405,34.3612632 40.2229189,34.2635789 C40.2229189,34.2635789 40.0251892,34.6997895 39.4973514,34.7317895 C39.4973514,34.7317895 39.3314595,34.9675789 38.936,34.9675789 C38.936,34.9675789 39.6615676,35.168 39.5291892,35.5385263 C39.5291892,35.5385263 39.8928108,35.4711579 39.7252432,35.8736842 L39.8592973,36.2442105 L39.8241081,36.7124211 C39.8241081,36.7124211 39.8592973,36.8454737 39.4956757,36.9145263 C39.4956757,36.9145263 39.364973,37.3827368 39.561027,37.4501053 C39.561027,37.4501053 39.561027,37.4837895 39.426973,37.5848421 C39.426973,37.5848421 39.7252432,38.0547368 38.8706486,37.6842105 C38.8706486,37.6842105 38.4064865,37.4501053 38.7684324,38.3562105 L38.9343243,38.4892632 C38.9343243,38.4892632 39.2996216,37.6825263 39.99,37.6825263 C39.99,37.6825263 40.5178378,37.4821053 40.3854595,37.3473684 C40.3854595,37.3473684 40.9484865,37.0138947 41.1780541,37.4821053 C41.1780541,37.4821053 41.5735135,37.5141053 41.5416757,37.6825263 C41.5416757,37.6825263 42.1348649,37.5831579 42.0678378,37.7852632 C42.0678378,37.7852632 42.5286486,37.7852632 42.3979459,37.6825263 C42.3979459,37.6825263 43.1536757,37.5831579 43.0883243,37.952 C43.022973,38.3208421 43.0883243,38.0547368 43.0883243,38.0547368 C43.0883243,38.0547368 43.4184324,38.0884211 43.4184324,38.4555789 C43.4184324,38.4555789 44.3735676,38.4218947 44.1775135,38.8244211 C44.1775135,38.8244211 44.7371892,39.1275789 44.5042703,39.6311579 C44.5042703,39.6311579 44.8343784,39.6985263 44.8678919,40.2021053 C44.8678919,40.2021053 45.0672973,40.7073684 44.3417297,40.7393684 L42.9241081,40.7393684 C42.9241081,40.7393684 42.4951351,40.5389474 42.0661622,40.7056842 C42.0661622,40.7056842 42.6275135,41.1402105 42.3275676,41.4433684 C42.3275676,41.4433684 42.8905946,41.6437895 41.6036757,42.4825263 C41.6036757,42.4825263 40.7792432,42.9524211 40.0536757,42.5515789 C40.0536757,42.5515789 39.4604865,42.752 39.1622162,42.3494737 C39.1622162,42.3494737 38.8672973,42.4168421 38.5371892,42.0463158 C38.5371892,42.0463158 38.1082162,41.8122105 38.0428649,42.2484211 L38.5003243,42.2821053 C38.5003243,42.2821053 38.6678919,42.6509474 38.998,42.4168421 C38.998,42.4168421 40.0536757,42.8867368 40.0536757,42.72 C40.0536757,42.72 40.5798378,43.0214737 40.4491351,43.1882105 C40.4491351,43.1882105 41.0423243,43.456 41.0423243,43.6917895 C41.0423243,43.6917895 41.2082162,44.0623158 41.4042703,44.1296842 C41.4042703,44.1296842 41.9019459,44.7326316 40.9099459,45.0357895 C40.9099459,45.0357895 40.5815135,45.3372632 40.0201622,44.7326316 C40.0201622,44.7326316 39.7218919,44.9330526 39.6565405,44.5978947 L39.4604865,44.5978947 C39.4604865,44.5978947 39.3616216,44.9010526 38.8974595,44.6315789 C38.8974595,44.6315789 38.6025405,44.6315789 38.6025405,44.4631579 C38.6025405,44.4631579 38.372973,44.3637895 38.3042703,44.4985263 L37.944,44.4985263 C37.944,44.4985263 37.6792432,44.9010526 38.0747027,45.0694737 C38.0747027,45.0694737 38.4014595,45.2378947 38.3042703,45.3372632 C38.3042703,45.3372632 38.7650811,45.2362105 39.4236216,45.3035789 C40.0855135,45.3709474 39.5258378,45.3035789 39.5258378,45.3035789 C39.5258378,45.3035789 39.8559459,45.6724211 40.1525405,45.6724211 C40.1525405,45.6724211 40.7457297,45.9738947 40.0855135,46.5785263 C40.0855135,46.5785263 39.6263784,46.9473684 39.1303784,46.8126316 C39.1303784,46.8126316 38.8321081,46.6795789 38.7667568,46.4117895 C38.7667568,46.4117895 38.4031351,46.4774737 38.3411351,46.2113684 C38.2724324,45.9418947 38.3411351,46.1086316 38.3411351,46.1086316 C38.3411351,46.1086316 38.3059459,46.6122105 37.7781081,45.8745263 L37.2519459,45.9402105 L37.2519459,62.1170526 C37.2687027,62.1204211 37.0391351,62.3865263 36.146,62.3208421 Z" id="Shape" fill="#FFFFFF"></path>
                    <g transform="translate(16.136160, 14.002526)" fill="#006F53" id="Shape">
                        <path d="M23.714759,27.7221053 C23.714759,27.7221053 24.5391915,27.7894737 24.572705,27.6547368 C24.572705,27.6547368 24.9028131,27.2185263 25.4624888,27.5873684 L25.6954077,27.6884211 C25.6954077,27.6884211 25.4624888,27.6884211 25.4624888,27.8214737 L24.8022725,27.8888421 C24.8022725,27.8888421 24.4403266,28.0572632 24.1755698,27.9225263 L23.714759,27.7221053 Z"></path>
                        <path d="M19.1032996,16.6433684 L19.1032996,17.4147368 C19.1032996,17.4147368 18.9725969,17.5157895 18.8402185,17.3136842 C18.7078401,17.1115789 18.739678,17.2463158 18.739678,17.2463158 C18.739678,17.2463158 18.739678,16.8774737 18.5101104,16.9448421 L18.4078942,16.7427368 L18.6408131,16.6753684 L19.1032996,16.6433684 Z"></path>
                        <path d="M22.1982725,14.8648421 L22.1329212,16.3402105 C22.1329212,16.3402105 23.0545428,16.6753684 22.9891915,16.9448421 C22.9891915,16.9448421 24.0465428,16.3065263 24.6715698,16.4412632 C24.6715698,16.4412632 24.9044888,16.2408421 25.0670293,16.2408421 C25.0670293,16.2391579 23.3846509,16.3402105 22.1982725,14.8648421 Z"></path>
                        <path d="M1.03448876,0 C1.03448876,0 1.92427255,0.166736842 2.05329957,0.032 C2.05329957,0.032 2.68167795,0.468210526 3.01011038,0.434526316 C3.01011038,0.434526316 3.43908336,0.602947368 3.50611038,0.501894737 C3.50611038,0.501894737 3.73735363,0.936421053 4.13113741,0.904421053 L4.1663266,1.23957895 C4.1663266,1.23957895 3.80270498,1.67578947 3.20951579,1.47368421 C3.20951579,1.47368421 2.91292119,1.07115789 2.64816444,1.20589474 C2.64816444,1.20589474 2.21919146,1.03747368 2.18735363,0.769684211 C2.15384011,0.501894737 2.15384011,0.668631579 2.15384011,0.668631579 C2.15384011,0.668631579 1.75838065,0.432842105 1.62767795,0.533894737 C1.62767795,0.533894737 1.26405633,-0.00336842105 1.00097525,0.0976842105 C0.736218491,0.202105263 1.03448876,0 1.03448876,0 Z"></path>
                        <path d="M0.3223266,16.4766316 C0.3223266,16.4766316 -0.304376103,16.3755789 0.189948221,16.8117895 L1.01270498,16.8117895 C1.01270498,16.8117895 1.17859687,16.544 1.60589417,16.7107368 C1.60589417,16.7107368 1.80194822,16.4092632 2.19908336,16.4766316 L2.59454282,16.3082105 C2.59454282,16.3082105 2.76043471,15.9056842 2.36329957,15.9730526 C2.36329957,15.9730526 2.16389417,16.1751579 1.73492119,15.9730526 C1.73492119,15.9730526 1.77011038,16.2745263 0.975840113,16.3082105 C0.979191464,16.3082105 0.947353627,16.544 0.3223266,16.4766316 Z"></path>
                        <path d="M1.73492119,17.3726316 L3.64686714,17.3052632 C3.64686714,17.3052632 3.71389417,17.6404211 3.05367795,17.8425263 C3.05367795,17.8425263 2.32643471,17.7431579 2.32643471,17.9435789 C2.32643471,17.9435789 1.5690293,17.9772632 1.46848876,17.8088421 L1.00767795,17.7414737 C1.00767795,17.7414737 0.317299573,17.7077895 1.13838065,17.3726316 C1.13838065,17.3726316 1.73492119,17.3726316 1.73492119,17.3726316 Z"></path>
                        <path d="M7.78243471,16.5541053 L7.75059687,16.9549474 C7.75059687,16.9549474 8.67221849,16.8202105 7.78243471,16.5541053 Z"></path>
                    </g>
                </g>
                <g id="Group" transform="translate(71.213344, 16.550035)" fill="#000000">
                    <path d="M10.6921692,5.645 L14.4879393,12.7016667 L6.96808036,12.7016667 L10.6921692,5.645 Z M12.3508391,0.378333333 L4.16584517,15.7483333 C3.24399148,17.3116667 3.20731737,17.4116667 1.62199574,17.515 L0,17.515 L0,18.17 L8.10997869,18.17 L8.10997869,17.515 L6.30294541,17.515 C5.45610694,17.515 4.86598722,17.515 4.86598722,17.0633333 C4.86598722,16.81 5.01268364,16.5066667 5.19772119,16.1283333 L6.63634639,13.355 L14.8580144,13.355 L17.0317888,17.515 L13.5660856,17.515 L13.5660856,18.17 L25.3634791,18.17 L25.3634791,17.515 L22.5612439,17.515 L13.5660856,0.378333333 C13.5660856,0.378333333 12.3508391,0.378333333 12.3508391,0.378333333 Z" id="Shape"></path>
                    <path d="M39.5196845,1.10833333 C41.1050061,1.10833333 42.8736983,1.21 44.16396,2.77333333 C44.5323681,3.22666667 45.1224878,4.00833333 45.4175477,6.98166667 C45.4542218,7.58666667 45.52757,8.44333333 45.52757,9.42666667 C45.52757,10.9366667 45.4175477,12.4483333 45.0474726,13.9383333 C44.3106565,16.8616667 41.8768293,17.49 38.9278977,17.49 L34.910416,17.49 L34.910416,1.11 L39.5196845,1.11 L39.5196845,1.10833333 Z M26.4320292,18.17 L39.6297068,18.17 C42.8736983,18.17 47.1495657,18.1216667 49.9518009,14.34 C51.352085,12.4483333 51.5737967,10.735 51.5737967,9.52666667 C51.5737967,6.52666667 50.320209,3.47833333 46.7811577,1.71333333 C44.2739823,0.48 41.9518446,0.428333333 39.5196845,0.378333333 L26.4320292,0.378333333 L26.4320292,1.03333333 L29.4543091,1.03333333 L29.4543091,17.4883333 L26.4320292,17.4883333 L26.4320292,18.17 Z" id="Shape"></path>
                    <path d="M63.5545607,1.03333333 L63.5545607,17.515 L66.6501887,17.515 L66.6501887,18.17 L54.9644846,18.17 L54.9644846,17.515 L58.0617796,17.515 L58.0617796,1.03333333 L54.9644846,1.03333333 L54.9644846,0.378333333 L66.6501887,0.378333333 L66.6501887,1.03333333 C66.6501887,1.03333333 63.5545607,1.03333333 63.5545607,1.03333333 Z" id="Shape"></path>
                    <path d="M81.9499594,1.10833333 C85.4890108,1.15833333 86.5208868,1.89 86.5208868,4.58666667 C86.5208868,6.375 86.1524787,6.93 85.8574188,7.20666667 C84.8622169,8.26333333 83.0551836,8.29166667 81.9866335,8.315 L78.8526644,8.315 L78.8526644,1.10833333 C78.8526644,1.10833333 81.9499594,1.10833333 81.9499594,1.10833333 Z M70.2642553,1.05833333 L73.3982244,1.05833333 L73.3982244,17.515 L70.2642553,17.515 L70.2642553,18.17 L82.503405,18.17 L82.503405,17.515 L78.8543314,17.515 L78.8543314,8.99833333 L80.8080611,8.99833333 C83.2768953,8.99833333 84.898891,9.42666667 85.230625,11.595 C85.3773214,12.45 85.4506696,12.955 85.4890108,13.6583333 C85.5256849,14.6933333 85.7107224,16.1033333 86.9626431,17.1366667 C88.2529048,18.2183333 89.7282041,18.2716667 90.7600802,18.2716667 C92.4937652,18.2716667 93.7473529,18.045 95.2960004,17.7183333 L95.2960004,16.985 C94.815903,17.1366667 94.0424127,17.365 93.3055966,17.365 C91.6085856,17.365 91.5369044,16.3316667 91.4635562,14.6933333 C91.3535339,12.3733333 91.0201329,11.3183333 89.1030773,10.155 C88.4779505,9.77666667 87.7761414,9.475 87.0026512,9.25 C86.1908198,9.02166667 85.2706331,8.87 84.3854535,8.72 C85.233959,8.67166667 86.1191386,8.61833333 86.9659771,8.49166667 C90.5050284,7.99 92.0536759,6.375 92.0536759,4.66166667 C92.0536759,3.1 91.0201329,1.79 88.994722,1.05833333 C87.299378,0.453333333 85.1972849,0.428333333 83.170207,0.378333333 L70.2675893,0.378333333 L70.2675893,1.05833333 L70.2642553,1.05833333 Z" id="Shape"></path>
                    <path d="M116.675338,9.17166667 C116.675338,12.3466667 116.491967,13.6566667 115.940189,14.8683333 C114.686601,17.615 112.401137,17.8933333 110.409067,17.8933333 C108.013581,17.8933333 105.766458,17.44 104.586219,14.97 C103.884409,13.61 103.737713,10.9883333 103.737713,8.82166667 C103.737713,4.79166667 104.291159,0.681666667 110.227363,0.681666667 C116.085218,0.681666667 116.675338,4.00833333 116.675338,9.17166667 Z M122.97995,9.19833333 C122.97995,4.06 118.260659,0 110.555763,0 C107.238423,0 104.436188,0.68 102.004028,2.21833333 C98.9084,4.13333333 97.4681078,6.72666667 97.4681078,9.44833333 C97.4681078,12.3733333 99.1651187,14.4383333 100.897137,15.8 C103.662698,17.9416667 106.759993,18.5483333 110.077333,18.5483333 C113.57971,18.5483333 117.043746,17.8916667 119.882655,15.5 C122.758239,13.055 122.97995,10.46 122.97995,9.19833333 Z" id="Shape"></path>
                    <path d="M133.892164,0.378333333 L146.463048,11.7666667 L146.463048,2.41833333 C146.499722,1.285 146.424707,1.03166667 144.399296,1.03166667 L143.255731,1.03166667 L143.255731,0.376666667 L150.627226,0.376666667 L150.627226,1.03166667 L149.448654,1.03166667 C147.826658,0.98 147.716636,1.35833333 147.678294,2.99666667 L147.678294,18.2933333 L146.796449,18.2933333 L129.801334,2.61833333 L129.801334,15.8966667 C129.836341,17.0333333 130.204749,17.4583333 131.608367,17.5116667 L133.487082,17.5116667 L133.487082,18.1666667 L125.450452,18.1666667 L125.450452,17.5116667 L126.777387,17.5116667 C128.361042,17.46 128.547747,17.06 128.582754,15.9466667 L128.582754,2.61833333 C128.547747,1.50833333 128.547747,1.105 126.740713,1.055 L125.452119,1.03 L125.452119,0.375 L133.892164,0.375 L133.892164,0.378333333 Z" id="Shape"></path>
                    <path d="M165.595263,1.10833333 C167.180584,1.10833333 168.949277,1.21 170.241205,2.77333333 C170.609613,3.22666667 171.198066,4.00833333 171.491459,6.98166667 C171.5298,7.58666667 171.604815,8.44333333 171.604815,9.42666667 C171.604815,10.9366667 171.491459,12.4483333 171.123051,13.9383333 C170.387902,16.8616667 167.952408,17.49 165.005143,17.49 L160.987661,17.49 L160.987661,1.11 L165.595263,1.11 L165.595263,1.10833333 Z M152.505941,18.17 L165.705285,18.17 C168.94761,18.17 173.223477,18.1216667 176.025712,14.34 C177.42933,12.4483333 177.647708,10.735 177.647708,9.52666667 C177.647708,6.52666667 176.39412,3.47833333 172.858403,1.71333333 C170.351228,0.48 168.027423,0.428333333 165.595263,0.378333333 L152.505941,0.378333333 L152.505941,1.03333333 L155.531554,1.03333333 L155.531554,17.4883333 L152.505941,17.4883333 L152.505941,18.17 Z" id="Shape"></path>
                    <path d="M189.046687,5.645 L192.842457,12.7016667 L185.324265,12.7016667 L189.046687,5.645 Z M190.708691,0.378333333 L182.523697,15.7483333 C181.605178,17.3116667 181.566836,17.4116667 179.981515,17.515 L178.359519,17.515 L178.359519,18.17 L186.469498,18.17 L186.469498,17.515 L184.662464,17.515 C183.815626,17.515 183.227173,17.515 183.227173,17.0633333 C183.227173,16.81 183.37387,16.5066667 183.555573,16.1283333 L184.994198,13.355 L193.215866,13.355 L195.391308,17.515 L191.927272,17.515 L191.927272,18.17 L203.722998,18.17 L203.722998,17.515 L200.92243,17.515 L191.927272,0.378333333 C191.927272,0.378333333 190.708691,0.378333333 190.708691,0.378333333 Z" id="Shape"></path>
                    <path d="M225.149012,5.01666667 L223.967105,4.99166667 C223.602031,3.78166667 222.603495,0.658333333 217.405774,0.658333333 C212.613135,0.658333333 211.691281,3.355 211.359547,4.31166667 C210.731087,6.12666667 210.659405,7.99166667 210.659405,9.855 C210.659405,14.9716667 212.281401,17.8183333 216.852329,17.8183333 C217.920879,17.8183333 218.956089,17.6416667 219.912949,17.315 C222.898555,16.28 223.820409,14.3416667 224.373855,13.1816667 L225.51742,13.1816667 L225.110671,18.1716667 L224.225491,18.1716667 L223.050253,17.065 C222.350111,17.4916667 220.614759,18.5516667 216.853996,18.5516667 C208.337268,18.5516667 204.468149,14.065 204.468149,9.50333333 C204.468149,3.75833333 210.661072,0.00333333333 217.224071,0.00333333333 C220.466395,0.00333333333 222.270094,0.961666667 223.231956,1.465 L223.967105,0.381666667 L224.9273,0.381666667 L225.149012,5.01666667 Z" id="Shape"></path>
                    <path d="M252.426212,1.05833333 C251.065936,1.05833333 250.547498,1.21 248.630442,2.69666667 L243.177669,6.85333333 L253.534771,17.5133333 L255.413485,17.5133333 L255.413485,18.1683333 L244.099523,18.1683333 L244.099523,17.5133333 L247.231825,17.5133333 L238.828454,8.97166667 L247.231825,2.46833333 C247.860286,2.015 248.338717,1.66333333 248.338717,1.41 C248.338717,1.03166667 247.860286,1.03166667 246.825076,1.03166667 L244.946362,1.03166667 L244.946362,0.376666667 L253.534771,0.376666667 L253.534771,1.03166667 L252.426212,1.05833333 Z M238.565067,1.03333333 L238.565067,17.515 L241.697369,17.515 L241.697369,18.17 L230.123354,18.17 L230.123354,17.515 L233.183975,17.515 L233.183975,1.03333333 L230.123354,1.03333333 L230.123354,0.378333333 L241.697369,0.378333333 L241.697369,1.03333333 C241.697369,1.03333333 238.565067,1.03333333 238.565067,1.03333333 Z" id="Shape"></path>
                    <path d="M278.453159,1.08333333 C281.473772,1.08333333 283.024087,1.58833333 283.024087,4.91333333 C283.024087,7.86333333 281.473772,8.56833333 278.599856,8.56833333 L275.579243,8.56833333 L275.579243,1.08166667 L278.453159,1.08333333 Z M266.985833,1.03333333 L270.121469,1.03333333 L270.121469,17.515 L266.985833,17.515 L266.985833,18.17 L278.488167,18.17 C282.358952,18.145 287.00156,18.145 288.995298,15.5983333 C289.583751,14.8433333 289.730447,14.0616667 289.730447,13.46 C289.730447,10.8883333 287.00156,9.62833333 284.459378,9.17333333 C283.574198,9.02333333 282.655679,8.94833333 281.695484,8.87166667 C282.545656,8.79666667 283.392495,8.69833333 284.202659,8.545 C286.744842,8.015 288.516868,6.72833333 288.516868,4.79166667 C288.516868,3.50666667 287.8534,2.17 285.531262,1.23666667 C283.502517,0.455 281.142038,0.405 279.006605,0.38 L266.985833,0.38 L266.985833,1.03333333 Z M279.006605,9.275 C280.075155,9.275 281.623803,9.35 282.692353,10.2566667 C283.574198,10.99 283.720895,12.1716667 283.720895,13.46 C283.720895,14.54 283.614207,15.55 282.949072,16.305 C281.952203,17.4133333 280.481904,17.5166667 279.263324,17.5166667 L275.577576,17.5166667 L275.577576,9.27666667 L279.006605,9.27666667 L279.006605,9.275 Z" id="Shape"></path>
                    <path d="M301.974598,5.645 L305.770368,12.7016667 L298.248842,12.7016667 L301.974598,5.645 Z M303.631601,0.378333333 L295.446607,15.7483333 C294.524753,17.3116667 294.489746,17.4116667 292.904425,17.515 L291.282429,17.515 L291.282429,18.17 L299.389074,18.17 L299.389074,17.515 L297.585374,17.515 C296.738536,17.515 296.150083,17.515 296.150083,17.0633333 C296.150083,16.81 296.29678,16.5066667 296.481817,16.1283333 L297.917108,13.355 L306.138776,13.355 L308.314218,17.515 L304.850182,17.515 L304.850182,18.17 L316.645908,18.17 L316.645908,17.515 L313.842006,17.515 L304.848515,0.378333333 C304.848515,0.378333333 303.631601,0.378333333 303.631601,0.378333333 Z" id="Shape"></path>
                    <path d="M326.044482,0.378333333 L338.615365,11.7666667 L338.615365,2.41833333 C338.650372,1.285 338.577024,1.03166667 336.551613,1.03166667 L335.409715,1.03166667 L335.409715,0.376666667 L342.784544,0.376666667 L342.784544,1.03166667 L341.602638,1.03166667 C339.980642,0.98 339.87062,1.35833333 339.835613,2.99666667 L339.835613,18.2933333 L338.950433,18.2933333 L321.955319,2.61833333 L321.955319,15.8966667 C321.99366,17.0333333 322.362068,17.4583333 323.762352,17.5116667 L325.641066,17.5116667 L325.641066,18.1666667 L317.606103,18.1666667 L317.606103,17.5116667 L318.934706,17.5116667 C320.516693,17.46 320.703398,17.06 320.741739,15.9466667 L320.741739,2.61833333 C320.703398,1.50833333 320.703398,1.105 318.896365,1.055 L317.60777,1.03 L317.60777,0.375 L326.044482,0.375 L326.044482,0.378333333 Z" id="Shape"></path>
                    <path d="M368.439749,1.05833333 C367.076139,1.05833333 366.557701,1.21 364.640645,2.69666667 L359.187872,6.85333333 L369.544974,17.5133333 L371.427022,17.5133333 L371.427022,18.1683333 L360.106392,18.1683333 L360.106392,17.5133333 L363.245362,17.5133333 L354.838657,8.97166667 L363.245362,2.46833333 C363.870489,2.015 364.348919,1.66333333 364.348919,1.41 C364.348919,1.03166667 363.870489,1.03166667 362.835279,1.03166667 L360.959899,1.03166667 L360.959899,0.376666667 L369.544974,0.376666667 L369.544974,1.03166667 L368.439749,1.05833333 Z M354.57527,1.03333333 L354.57527,17.515 L357.707572,17.515 L357.707572,18.17 L346.133557,18.17 L346.133557,17.515 L349.194178,17.515 L349.194178,1.03333333 L346.133557,1.03333333 L346.133557,0.378333333 L357.707572,0.378333333 L357.707572,1.03333333 C357.707572,1.03333333 354.57527,1.03333333 354.57527,1.03333333 Z" id="Shape"></path>
                </g>
                <g id="Group" transform="translate(443.607818, 31.186480)" fill="#FFFFFF">
                    <path d="M2.48675,0 L2.48675,0.369777778 L1.4525,0.369777778 L1.4525,3.11466667 L1.03425,3.11466667 L1.03425,0.369777778 L0,0.369777778 L0,0 C0,0 2.48675,0 2.48675,0 Z" id="Shape"></path>
                    <path d="M2.8595,0 L3.4545,0 L4.3365,2.63466667 L5.21325,1.26318709e-14 L5.80475,0 L5.80475,3.11644444 L5.40575,3.11644444 L5.40575,1.27644444 C5.40575,1.21244444 5.4075,1.10755556 5.411,0.96 C5.4145,0.812444444 5.41625,0.656 5.41625,0.485333333 L4.53775,3.11466667 L4.12825,3.11466667 L3.24275,0.485333333 L3.24275,0.581333333 C3.24275,0.656 3.24625,0.775111111 3.24975,0.929777778 C3.255,1.08622222 3.25675,1.20177778 3.25675,1.27466667 L3.25675,3.11466667 L2.8595,3.11466667 L2.8595,0 Z" id="Shape"></path>
                </g>
                <g id="Group" transform="translate(221.632594, 52.596243)" fill="#000000">
                    <path d="M0,0.729 L3.16671658,0.729 C3.60718717,0.729 4.03431016,0.7745625 4.44474866,0.8656875 C4.85518717,0.9568125 5.22057754,1.1086875 5.53925134,1.3213125 C5.85959358,1.535625 6.11653476,1.8140625 6.30506952,2.156625 C6.49527273,2.500875 6.59204278,2.926125 6.59204278,3.4340625 C6.59204278,4.0213125 6.42853476,4.5241875 6.10318717,4.9460625 C5.77783957,5.3679375 5.3140107,5.646375 4.71503743,5.788125 L4.71503743,5.8185 C5.46417112,5.87925 6.05313369,6.145875 6.47858824,6.6166875 C6.90571123,7.0875 7.11760428,7.7169375 7.11760428,8.508375 C7.11760428,8.6805 7.07589305,8.933625 6.99080214,9.2660625 C6.90571123,9.6001875 6.72718717,9.9343125 6.4568984,10.2616875 C6.18660963,10.59075 5.79619251,10.8759375 5.28731551,11.120625 C4.7751016,11.363625 4.09437433,11.485125 3.24346524,11.485125 L0.0016684492,11.485125 L0,0.729 Z M1.08282353,5.437125 L3.26014973,5.437125 C3.52042781,5.437125 3.77903743,5.403375 4.03264171,5.3375625 C4.28791444,5.27175 4.51816043,5.1620625 4.72337968,5.011875 C4.92859893,4.8616875 5.0971123,4.6659375 5.22725134,4.4263125 C5.35572193,4.188375 5.42079144,3.898125 5.42079144,3.5521875 C5.42079144,3.4425 5.3991016,3.2855625 5.35405348,3.0830625 C5.3106738,2.8805625 5.2088984,2.6780625 5.05373262,2.4755625 C4.89856684,2.2730625 4.67165775,2.0975625 4.3713369,1.95075 C4.07101604,1.8039375 3.66391444,1.7296875 3.15503743,1.7296875 L1.08449198,1.7296875 L1.08449198,5.437125 L1.08282353,5.437125 Z M1.08282353,10.4810625 L3.15336898,10.4810625 C3.54211765,10.4810625 3.90917647,10.4405625 4.24954011,10.3595625 C4.58823529,10.2785625 4.88521925,10.155375 5.13548663,9.986625 C5.38408556,9.8195625 5.58263102,9.608625 5.7277861,9.3571875 C5.87127273,9.1040625 5.94635294,8.8003125 5.94635294,8.4459375 C5.94635294,7.7371875 5.71944385,7.2106875 5.26896257,6.86475 C4.81848128,6.5221875 4.1577754,6.348375 3.28684492,6.348375 L1.08115508,6.348375 L1.08115508,10.4810625 L1.08282353,10.4810625 Z" id="Shape"></path>
                    <path d="M13.6929626,7.1229375 L13.6929626,6.9406875 C13.6929626,5.7155625 13.0923209,5.103 11.8910374,5.103 C11.0701604,5.103 10.3527273,5.3814375 9.74374332,5.9383125 L9.14477005,5.2245 C9.80547594,4.536 10.7948663,4.19175 12.1162781,4.19175 C12.4566417,4.19175 12.7836578,4.242375 13.1006631,4.343625 C13.416,4.4465625 13.6879572,4.600125 13.9182032,4.8076875 C14.1484492,5.01525 14.3336471,5.275125 14.4737968,5.589 C14.6139465,5.9045625 14.6840214,6.2775 14.6840214,6.712875 L14.6840214,9.8870625 C14.6840214,10.1604375 14.697369,10.4473125 14.7207273,10.746 C14.7440856,11.0446875 14.7741176,11.289375 14.8041497,11.4834375 L13.843123,11.4834375 C13.8130909,11.3113125 13.7914011,11.124 13.7747166,10.9215 C13.761369,10.719 13.7513583,10.5215625 13.7513583,10.3291875 L13.7213262,10.3291875 C13.431016,10.803375 13.088984,11.1459375 12.6935615,11.3535 C12.298139,11.5610625 11.8159572,11.6656875 11.2453476,11.6656875 C10.9333476,11.6656875 10.6346952,11.6218125 10.3427166,11.53575 C10.0524064,11.4496875 9.79546524,11.3180625 9.5702246,11.1425625 C9.34498396,10.965375 9.16479144,10.7476875 9.02964706,10.4878125 C8.89617112,10.2313125 8.82776471,9.92925 8.82776471,9.585 C8.82776471,9.007875 8.97458824,8.555625 9.27157219,8.224875 C9.5668877,7.8975 9.93561497,7.651125 10.3827594,7.4874375 C10.8282353,7.3254375 11.3037433,7.2241875 11.807615,7.1836875 C12.3148235,7.1431875 12.776984,7.1229375 13.1974332,7.1229375 C13.1974332,7.1229375 13.6929626,7.1229375 13.6929626,7.1229375 Z M13.1824171,7.94475 C12.9338182,7.94475 12.6201497,7.9565625 12.2447487,7.981875 C11.8693476,8.0071875 11.510631,8.0679375 11.165262,8.1624375 C10.819893,8.2603125 10.5245775,8.4088125 10.2793155,8.6113125 C10.0340535,8.8138125 9.91225668,9.09225 9.91225668,9.446625 C9.91225668,9.6795 9.95730481,9.8803125 10.0540749,10.0456875 C10.1508449,10.2110625 10.2776471,10.3494375 10.4361497,10.45575 C10.5963209,10.560375 10.7748449,10.638 10.968385,10.6835625 C11.1635936,10.729125 11.3604706,10.75275 11.5606845,10.75275 C11.9210695,10.75275 12.2330695,10.692 12.4983529,10.5705 C12.7636364,10.449 12.9855401,10.2853125 13.1674011,10.07775 C13.3459251,9.8701875 13.4794011,9.6255 13.564492,9.3470625 C13.6495829,9.068625 13.6912941,8.7733125 13.6912941,8.4594375 L13.6912941,7.9430625 L13.1824171,7.94475 Z" id="Shape"></path>
                    <path d="M18.0909947,4.374 C18.1126845,4.566375 18.1243636,4.7570625 18.1277005,4.944375 C18.1327059,5.13 18.1360428,5.3206875 18.1360428,5.5130625 L18.1660749,5.5130625 C18.2761925,5.3206875 18.4146738,5.1435 18.5881925,4.9831875 C18.7583743,4.8195 18.9469091,4.681125 19.1588021,4.5646875 C19.3673583,4.4499375 19.5909305,4.357125 19.8261818,4.2913125 C20.0614332,4.2255 20.2916791,4.19175 20.5235936,4.19175 C21.4245561,4.19175 22.0902674,4.4330625 22.5207273,4.914 C22.9511872,5.3949375 23.1664171,6.0800625 23.1664171,6.97275 L23.1664171,11.4834375 L22.1753583,11.4834375 L22.1753583,7.549875 C22.1753583,6.760125 22.0402139,6.156 21.7699251,5.7358125 C21.4996364,5.315625 20.9991016,5.1046875 20.2699893,5.1046875 C20.2182674,5.1046875 20.0781176,5.126625 19.8495401,5.1654375 C19.6176257,5.2059375 19.3757005,5.3173125 19.1187594,5.4995625 C18.8651551,5.680125 18.6365775,5.9551875 18.4363636,6.3196875 C18.2361497,6.6841875 18.1360428,7.1904375 18.1360428,7.83675 L18.1360428,11.48175 L17.1433155,11.48175 L17.1433155,5.9383125 C17.1433155,5.747625 17.1366417,5.5029375 17.1199572,5.2093125 C17.1066096,4.9156875 17.0865882,4.63725 17.0682353,4.374 C17.0682353,4.374 18.0909947,4.374 18.0909947,4.374 Z" id="Shape"></path>
                    <polygon id="Shape" points="26.650139 7.5785625 29.967016 4.3756875 31.4536043 4.3756875 27.9548663 7.6258125 31.8290053 11.4834375 30.297369 11.4834375 26.6484706 7.7473125 26.6484706 11.4834375 25.6557433 11.4834375 25.6557433 0.0016875 26.6484706 0.0016875"></polygon>
                    <polygon id="Shape" points="38.5111444 10.4810625 43.4664385 10.4810625 43.4664385 11.4834375 37.4299893 11.4834375 37.4299893 0.729 38.5111444 0.729"></polygon>
                    <path d="M51.8620749,7.927875 C51.8620749,8.4645 51.7686417,8.960625 51.5834439,9.4179375 C51.3999144,9.8735625 51.1413048,10.2684375 50.8092834,10.600875 C50.4805989,10.935 50.0851765,11.1965625 49.6313583,11.383875 C49.1775401,11.5711875 48.6736684,11.6656875 48.1230802,11.6656875 C47.5825027,11.6656875 47.0853048,11.5711875 46.6281497,11.383875 C46.1709947,11.1965625 45.7789091,10.935 45.4485561,10.600875 C45.1198717,10.2684375 44.861262,9.871875 44.6760642,9.4179375 C44.4908663,8.960625 44.3991016,8.4661875 44.3991016,7.927875 C44.3991016,7.3929375 44.4908663,6.8968125 44.6760642,6.4395 C44.861262,5.983875 45.1198717,5.589 45.4485561,5.254875 C45.7789091,4.9224375 46.1726631,4.660875 46.6281497,4.4735625 C47.0836364,4.28625 47.5808342,4.19175 48.1230802,4.19175 C48.6736684,4.19175 49.1775401,4.28625 49.6313583,4.4735625 C50.0851765,4.660875 50.4805989,4.9224375 50.8092834,5.254875 C51.1413048,5.589 51.3999144,5.9855625 51.5834439,6.4395 C51.7686417,6.8968125 51.8620749,7.3929375 51.8620749,7.927875 Z M50.7809198,7.927875 C50.7809198,7.5346875 50.7191872,7.165125 50.5940535,6.820875 C50.4689198,6.476625 50.2903957,6.1779375 50.0618182,5.9248125 C49.8299037,5.6716875 49.5529412,5.470875 49.2275936,5.32575 C48.902246,5.180625 48.5351872,5.1046875 48.1247487,5.1046875 C47.7143102,5.1046875 47.3455829,5.1789375 47.0219037,5.32575 C46.6965561,5.4725625 46.421262,5.6716875 46.1943529,5.9248125 C45.9691123,6.1779375 45.7955936,6.476625 45.6704599,6.820875 C45.5453262,7.165125 45.4835936,7.5346875 45.4835936,7.927875 C45.4835936,8.32275 45.5453262,8.6923125 45.6704599,9.0365625 C45.7955936,9.3808125 45.9707807,9.6795 46.1943529,9.932625 C46.421262,10.18575 46.6965561,10.3865625 47.0219037,10.5316875 C47.3455829,10.6785 47.7143102,10.75275 48.1247487,10.75275 C48.5351872,10.75275 48.902246,10.6785 49.2275936,10.5316875 C49.5529412,10.384875 49.8299037,10.18575 50.0618182,9.932625 C50.2920642,9.6795 50.4689198,9.3808125 50.5940535,9.0365625 C50.7191872,8.6923125 50.7809198,8.32275 50.7809198,7.927875 Z" id="Shape"></path>
                    <path d="M59.0180535,6.0463125 C58.8478717,5.7830625 58.6109519,5.5603125 58.3039572,5.3780625 C57.998631,5.1975 57.6515936,5.1046875 57.2611765,5.1046875 C56.850738,5.0945625 56.4820107,5.160375 56.1566631,5.302125 C55.832984,5.443875 55.5543529,5.6413125 55.324107,5.896125 C55.093861,6.1475625 54.9186738,6.449625 54.7985455,6.7989375 C54.6800856,7.14825 54.6200214,7.52625 54.6200214,7.9295625 C54.6200214,8.3345625 54.6800856,8.7125625 54.7985455,9.061875 C54.9186738,9.4111875 55.0955294,9.71325 55.324107,9.9646875 C55.5543529,10.2178125 55.832984,10.4169375 56.1566631,10.5586875 C56.4820107,10.7004375 56.850738,10.76625 57.2611765,10.756125 C57.6515936,10.756125 57.998631,10.6633125 58.3039572,10.48275 C58.6109519,10.3005 58.8478717,10.07775 59.0180535,9.8145 L59.8289198,10.4371875 C59.476877,10.8523125 59.083123,11.1594375 58.6426524,11.356875 C58.2021818,11.552625 57.7416898,11.65725 57.2611765,11.6690625 C56.6905668,11.6791875 56.175016,11.58975 55.7128556,11.4024375 C55.2540321,11.2168125 54.8602781,10.9535625 54.5349305,10.621125 C54.2112513,10.287 53.9626524,9.88875 53.7924706,9.4280625 C53.6206203,8.9690625 53.5371979,8.4695625 53.5371979,7.93125 C53.5371979,7.3963125 53.6222888,6.8968125 53.7924706,6.436125 C53.9643209,5.9754375 54.2112513,5.5771875 54.5349305,5.2430625 C54.8602781,4.9089375 55.2540321,4.647375 55.7128556,4.46175 C56.1733476,4.2744375 56.6905668,4.185 57.2611765,4.195125 C57.7416898,4.2069375 58.2021818,4.3081875 58.6426524,4.5073125 C59.083123,4.7064375 59.476877,5.011875 59.8289198,5.427 L59.0180535,6.0463125 Z" id="Shape"></path>
                    <path d="M66.043893,7.1229375 L66.043893,6.9406875 C66.043893,5.7155625 65.4415829,5.103 64.2419679,5.103 C63.4210909,5.103 62.7036578,5.3814375 62.0946738,5.9383125 L61.4940321,5.2245 C62.154738,4.536 63.1441283,4.19175 64.4672086,4.19175 C64.8059037,4.19175 65.1345882,4.242375 65.4515936,4.343625 C65.765262,4.4465625 66.0388877,4.600125 66.2691337,4.8076875 C66.4993797,5.01525 66.6829091,5.275125 66.8230588,5.589 C66.9632086,5.9045625 67.0349519,6.2775 67.0349519,6.712875 L67.0349519,9.8870625 C67.0349519,10.1604375 67.046631,10.4473125 67.0699893,10.746 C67.0966845,11.0446875 67.1233797,11.289375 67.1550802,11.4834375 L66.1940535,11.4834375 C66.1623529,11.3113125 66.1423316,11.124 66.1256471,10.9215 C66.110631,10.719 66.1022888,10.5215625 66.1022888,10.3291875 L66.0722567,10.3291875 C65.7819465,10.803375 65.438246,11.1459375 65.0428235,11.3535 C64.6490695,11.5610625 64.1668877,11.6656875 63.5946096,11.6656875 C63.2826096,11.6656875 62.9839572,11.6218125 62.6936471,11.53575 C62.4033369,11.4496875 62.1463957,11.3180625 61.9211551,11.1425625 C61.6959144,10.965375 61.5140535,10.7476875 61.3805775,10.4878125 C61.2454332,10.2313125 61.1786952,9.92925 61.1786952,9.585 C61.1786952,9.007875 61.3255187,8.555625 61.6208342,8.224875 C61.9161497,7.8975 62.2865455,7.651125 62.7320214,7.4874375 C63.1774973,7.3254375 63.6530053,7.2241875 64.156877,7.1836875 C64.6640856,7.1431875 65.126246,7.1229375 65.5466952,7.1229375 C65.5466952,7.1229375 66.043893,7.1229375 66.043893,7.1229375 Z M65.5333476,7.94475 C65.2830802,7.94475 64.9694118,7.9565625 64.5956791,7.981875 C64.2202781,8.0071875 63.859893,8.0679375 63.5145241,8.1624375 C63.1691551,8.2603125 62.8738396,8.4088125 62.6285775,8.6113125 C62.384984,8.8138125 62.2615187,9.09225 62.2615187,9.446625 C62.2615187,9.6795 62.3082353,9.8803125 62.4033369,10.0456875 C62.500107,10.21275 62.6269091,10.3494375 62.7870802,10.45575 C62.9472513,10.560375 63.124107,10.638 63.3176471,10.6835625 C63.5128556,10.729125 63.7114011,10.75275 63.9099465,10.75275 C64.272,10.75275 64.584,10.692 64.847615,10.5705 C65.1145668,10.449 65.3364706,10.2853125 65.5166631,10.07775 C65.6968556,9.8701875 65.8286631,9.6255 65.913754,9.3470625 C65.9988449,9.068625 66.0422246,8.7733125 66.0422246,8.4594375 L66.0422246,7.9430625 L65.5333476,7.94475 Z" id="Shape"></path>
                    <polygon id="Shape" points="70.6071016 11.48175 69.6160428 11.48175 69.6160428 0 70.6071016 0"></polygon>
                </g>
            </g>
        </g>
    </g>
</svg>