<svg viewBox="0 0 715 315" version="1.1" xmlns="http://www.w3.org/2000/svg" xmlns:xlink="http://www.w3.org/1999/xlink">
  <defs>
      <polygon id="path-1" points="0 0 66 0 66 77 0 77"></polygon>
      <polygon id="path-3" points="0 -3.80853885e-14 54 -3.80853885e-14 54 78 0 78"></polygon>
      <polygon id="path-5" points="0 241 715 241 715 0 0 0"></polygon>
      <polygon id="path-7" points="0 0 381 0 381 59 0 59"></polygon>
  </defs>
  <g id="Landing" stroke="none" stroke-width="1" fill="none" fill-rule="evenodd">
      <g id="Artboard" transform="translate(-985.000000, -358.000000)">
          <g id="Group-4" transform="translate(985.000000, 358.000000)">
              <g id="Group-35" transform="translate(0.000000, -0.000000)">
                  <g id="Group-3" transform="translate(0.000000, 2.000000)">
                      <mask id="mask-2" fill="white">
                          <use xlink:href="#path-1"></use>
                      </mask>
                      <g id="Clip-2"></g>
                      <path d="M36.6902899,77 C31.4180632,77 26.5315436,76.0062679 22.0361068,74.0215152 C17.5366383,72.0381182 13.6526885,69.3253517 10.3856012,65.8859271 C7.1171701,62.4478582 4.56908397,58.3875205 2.74134287,53.7089811 C0.913601766,49.029086 -0.000268785456,44.0306002 -0.000268785456,38.7121679 L-0.000268785456,38.5006779 C-0.000268785456,33.2540979 0.93107282,28.2895047 2.79375603,23.6109654 C4.65509532,18.9310703 7.22199642,14.8354843 10.4904276,11.3269187 C13.7588587,7.81699738 17.6414646,5.05135835 22.1409332,3.03135729 C26.6377139,1.01000053 31.5591756,0 36.8999426,0 C40.2033158,0 43.1908662,0.284698135 45.8612497,0.851382996 C48.5329771,1.41942356 51.0098351,2.23420251 53.2945115,3.29707555 C55.5778439,4.35994859 57.7227519,5.62075462 59.7265475,7.07271511 C61.7289991,8.52738701 63.6790376,10.1406764 65.5766629,11.9112277 L61.6765859,15.9525855 C60.0598414,14.39488 58.3718688,12.9402081 56.6153558,11.5926369 C54.8588428,10.2464215 52.9786886,9.09407187 50.9762369,8.13694385 C48.9724413,7.17981584 46.7939352,6.4179094 44.4393746,5.84986883 C42.0834701,5.28318397 39.5367279,4.99848584 36.7951162,4.99848584 C32.3668759,4.99848584 28.2558023,5.84986883 24.4592077,7.55127912 C20.6639571,9.2526894 17.3780549,11.6116168 14.6015011,14.6239942 C11.8249474,17.6377273 9.64778517,21.1639171 8.06598276,25.2052749 C6.48418035,29.2466327 5.69395111,33.607937 5.69395111,38.2878321 L5.69395111,38.5006779 C5.69395111,43.1792172 6.50030747,47.5581457 8.11839592,51.6347518 C9.73379651,55.7127137 11.9297737,59.2578833 14.7076714,62.2702608 C17.4828812,65.2839939 20.7701273,67.6591897 24.565378,69.3958484 C28.3606286,71.1338627 32.4717022,72.0015142 36.8999426,72.0015142 C42.2420535,72.0015142 46.8799466,71.0091378 50.8176535,69.0230294 C54.7526726,67.0396324 58.5828653,64.1682483 62.3082318,60.4088772 L66,64.0245435 C64.0311465,65.9387996 62.0098799,67.6944381 59.937544,69.2901034 C57.8625203,70.8844129 55.6477282,72.250964 53.2945115,73.3843337 C50.9399509,74.5190591 48.3918648,75.4043347 45.651597,76.042872 C42.9099854,76.6814092 39.9210911,77 36.6902899,77" id="Fill-1" fill="#FFFFFF" mask="url(#mask-2)"></path>
                  </g>
                  <path d="M122.248762,23 L128,23 L104.461469,78.7029131 C102.046112,84.3282067 99.4026601,88.2846049 96.527041,90.5721077 C93.6514218,92.8555762 90.2585171,94 86.3551153,94 C84.2941191,94 82.4489981,93.8023146 80.815679,93.4082885 C79.1823599,93.0115728 77.4431398,92.4198614 75.5980188,91.6277748 L77.4091972,87.0366316 C78.8279989,87.7399614 80.212858,88.2496401 81.561059,88.5670127 C82.9092601,88.8830404 84.6131798,89.0417266 86.6741759,89.0417266 C88.0943354,89.0417266 89.4072361,88.8305932 90.6155935,88.4096712 C91.8225932,87.9860595 92.9589923,87.267937 94.023433,86.251269 C95.0892314,85.2305667 96.1170141,83.9153534 97.1122118,82.3015948 C98.1060518,80.6838018 99.0998919,78.7190507 100.09509,76.4006175 L74,23 L80.0716567,23 L102.65029,71.1061444 L122.248762,23 Z" id="Fill-4" fill="#FFFFFF"></path>
                  <g id="Group-8" transform="translate(142.000000, -0.000000)">
                      <mask id="mask-4" fill="white">
                          <use xlink:href="#path-3"></use>
                      </mask>
                      <g id="Clip-7"></g>
                      <path d="M27.1061064,73.0593814 C30.0934099,73.0593814 32.886185,72.5327572 35.4830713,71.482189 C38.0785973,70.4316208 40.33948,68.925449 42.2602781,66.9623337 C44.1810762,65.0005583 45.691052,62.5992596 46.7956469,59.7611174 C47.8975212,56.9229752 48.4484583,53.7163301 48.4484583,50.1425221 L48.4484583,49.9321405 C48.4484583,46.4280131 47.8798368,43.2414682 46.7425937,40.3671457 C45.6039903,37.4941632 44.055925,35.0580242 42.0997582,33.0600685 C40.142231,31.0634529 37.8663845,29.5224409 35.2694982,28.4343524 C32.6726119,27.3489439 29.9505744,26.8048996 27.1061064,26.8048996 C24.2589178,26.8048996 21.5042322,27.367704 18.8352479,28.4879528 C16.1676239,29.6095416 13.8019952,31.1853939 11.7383615,33.2181898 C9.67472793,35.2509857 8.02055623,37.6697046 6.77720677,40.4716665 C5.53113664,43.2749684 4.90946191,46.3945128 4.90946191,49.8276197 L4.90946191,50.0380013 C4.90946191,53.4724482 5.53113664,56.6080727 6.77720677,59.4462149 C8.02055623,62.2843571 9.67472793,64.701736 11.7383615,66.6996916 C13.8019952,68.6963072 16.1676239,70.2574194 18.8352479,71.3776682 C21.5042322,72.499257 24.2589178,73.0593814 27.1061064,73.0593814 M27.5903869,78 C24.8928356,78 22.407497,77.6489173 20.1357316,76.9480918 C17.8653265,76.2486063 15.8248186,75.3025589 14.0128476,74.1099496 C12.202237,72.9200203 10.5698307,71.5532096 9.11562878,70.0108575 C7.66006651,68.4698455 6.36502418,66.8578129 5.22914148,65.1747597 L5.22914148,76.7390501 L0,76.7390501 L0,-0.00067000524 L5.22914148,-0.00067000524 L5.21961911,35.1102846 C6.35414148,33.3588909 7.66822854,31.6771777 9.16051995,30.0651451 C10.6500907,28.4531125 12.3001814,27.0528016 14.110792,25.8588522 C15.922763,24.6689229 17.9455865,23.7041154 20.1833434,22.9684496 C22.41974,22.2327839 24.8860339,21.864281 27.5849456,21.864281 C30.8511185,21.864281 34.0642382,22.4954259 37.2229444,23.7577158 C40.3830109,25.0186657 43.2057134,26.8410799 45.6896917,29.2236185 C48.1736699,31.6061572 50.1801693,34.5327401 51.7078295,38.0006872 C53.2354897,41.4699743 54,45.3774449 54,49.7217588 L54,49.9321405 C54,54.2777945 53.2354897,58.183925 51.7091898,61.6532122 C50.18289,65.1224993 48.1777509,68.0651623 45.6937727,70.4838812 C43.2084341,72.9012601 40.3857316,74.7598547 37.2270254,76.0556448 C34.0669589,77.3514349 30.8565599,78 27.5903869,78" id="Fill-6" fill="#FFFFFF" mask="url(#mask-4)"></path>
                  </g>
                  <path d="M253.525547,47.4828607 C253.31623,44.7558484 252.771468,42.1531557 251.893946,39.6707725 C251.016423,37.189726 249.790039,34.9867278 248.210766,33.0631147 C246.631494,31.1408383 244.684575,29.603552 242.368667,28.4499188 C240.052759,27.2949489 237.350419,26.7188007 234.26433,26.7188007 C231.595535,26.7188007 229.106537,27.2428149 226.789287,28.2921799 C224.474721,29.3402082 222.456687,30.7919412 220.736529,32.6433687 C219.01637,34.4974697 217.596769,36.6991311 216.475043,39.2510264 C215.350633,41.8029218 214.685112,44.5459754 214.474453,47.4828607 L253.525547,47.4828607 Z M235.316284,78 C231.806194,78 228.455775,77.3342882 225.263686,76.0068748 C222.070255,74.6794615 219.264599,72.7919412 216.84269,70.344314 C214.420781,67.8980235 212.51009,64.9611382 211.106591,61.5349947 C209.70175,58.1101881 209,54.2990547 209,50.1042681 L209,49.8943951 C209,46.0511792 209.648079,42.4325408 210.944236,39.0411534 C212.239051,35.6511028 214.024957,32.6955027 216.300612,30.1797002 C218.576267,27.6625609 221.253113,25.6707725 224.336518,24.2016614 C227.415897,22.7338871 230.778392,22 234.419976,22 C238.201106,22 241.597145,22.7178459 244.608094,24.1495274 C247.620384,25.5838824 250.193914,27.5582928 252.328682,30.0754321 C254.46345,32.5912346 256.109811,35.5454979 257.266423,38.9355486 C258.420352,42.3282727 259,46.0150864 259,50 L259,51.1014991 C259,51.3461281 258.963772,51.6776473 258.894,52.0973933 L214.474453,52.0973933 C214.685112,55.4366466 215.421748,58.3935835 216.68436,60.9668672 C217.946973,63.5414876 219.526245,65.7311181 221.420835,67.5397689 C223.315425,69.3497565 225.474345,70.7239568 227.894912,71.6623699 C230.315479,72.6021197 232.859489,73.0713263 235.526943,73.0713263 C239.737441,73.0713263 243.298519,72.2679271 246.210176,70.6584551 C249.121833,69.0516566 251.70073,67.0585315 253.946866,64.6817531 L257.525386,67.8271746 C254.78816,70.76406 251.684629,73.1929724 248.210766,75.1152487 C244.736904,77.0375251 240.437849,78 235.316284,78 Z" id="Fill-9" fill="#FFFFFF"></path>
                  <path d="M274,22.8586817 L279.167385,22.8586817 L279.167385,38.2516557 C280.221295,35.8469686 281.556158,33.6168481 283.174663,31.5640005 C284.790479,29.5125061 286.61869,27.7600752 288.657952,26.3080611 C290.697214,24.8587534 292.928707,23.7612851 295.35512,23.0183626 C297.780188,22.274087 300.327585,21.9398395 303,22.0088542 L303,27.74113 L302.473045,27.74113 C299.378529,27.74113 296.426505,28.3257247 293.615631,29.4935609 C290.802067,30.6613971 288.323228,32.396236 286.180457,34.6953712 C284.034997,36.9958596 282.330459,39.8281668 281.065499,43.1882332 C279.799193,46.5496527 279.167385,50.4252991 279.167385,54.8124658 L279.167385,77 L274,77 L274,22.8586817 Z" id="Fill-11" fill="#FFFFFF"></path>
                  <path d="M333.257259,78 C329.27984,78 325.305135,77.2619174 321.329073,75.7870989 C317.353011,74.3109337 313.910439,72.4078118 311,70.0750397 L314.088269,65.9549762 C317.069298,68.2096301 320.192862,69.9524749 323.458961,71.1848574 C326.72506,72.4172399 330.097043,73.0327577 333.576267,73.0327577 C337.267258,73.0327577 340.373175,72.1209293 342.895375,70.293232 C345.413502,68.4655347 346.674602,65.9697917 346.674602,62.8060032 L346.674602,62.5945452 C346.674602,61.0496897 346.283647,59.7135985 345.503096,58.5876185 C344.721187,57.4629852 343.655564,56.479773 342.308943,55.6366348 C340.959607,54.7921497 339.433798,54.0890856 337.728802,53.5287893 C336.025163,52.9671461 334.215641,52.404156 332.298878,51.841166 C330.097043,51.2081389 327.878919,50.5400933 325.643148,49.8356823 C323.406019,49.1326182 321.399662,48.2382991 319.625435,47.1486844 C317.849849,46.0590697 316.412277,44.7068161 315.312717,43.0892299 C314.2118,41.4729905 313.66202,39.4688537 313.66202,37.0781663 L313.66202,36.8667084 C313.66202,34.687479 314.104559,32.7035451 314.993709,30.9108663 C315.880144,29.1168406 317.10595,27.5531291 318.667053,26.2183847 C320.226799,24.8822935 322.109625,23.8452066 324.311459,23.1084708 C326.510578,22.3690413 328.925537,22 331.552263,22 C334.817005,22 338.171341,22.5400933 341.616627,23.62028 C345.059199,24.6991197 348.128464,26.1672038 350.827136,28.0231853 L348.059233,32.3547068 C345.572327,30.7344269 342.895375,29.4320073 340.018872,28.4461013 C337.143727,27.4601953 334.249578,26.9658954 331.340496,26.9658954 C327.574844,26.9658954 324.577525,27.8615614 322.341754,29.6555871 C320.105983,31.4482659 318.986061,33.6786762 318.986061,36.3495118 L318.986061,36.5609697 C318.986061,38.037135 319.41231,39.3193516 320.264808,40.4089663 C321.117306,41.498581 322.234513,42.4319592 323.619144,43.2050604 C325.003774,43.9768147 326.616462,44.6623695 328.465351,45.2603781 C330.310168,45.8570398 332.191637,46.4388859 334.1084,47.0005291 C336.308877,47.6349031 338.475416,48.3191111 340.603947,49.0571937 C342.733834,49.7952763 344.651955,50.744817 346.354236,51.9031218 C348.059233,53.0641204 349.424858,54.4527394 350.455187,56.0689788 C351.484157,57.6852181 352,59.6880081 352,62.0786955 L352,62.2888066 C352,64.679494 351.519452,66.8412141 350.56107,68.773967 C349.602688,70.7067199 348.272357,72.3606715 346.568718,73.7304344 C344.86508,75.1001972 342.87637,76.1561403 340.603947,76.8942229 C338.331523,77.6296118 335.882628,78 333.257259,78" id="Fill-13" fill="#FFFFFF"></path>
                  <path d="M409.525547,47.4828607 C409.31623,44.7558484 408.771468,42.1531557 407.893946,39.6707725 C407.016423,37.189726 405.790039,34.9867278 404.210766,33.0631147 C402.631494,31.1408383 400.684575,29.603552 398.368667,28.4499188 C396.052759,27.2949489 393.350419,26.7188007 390.26433,26.7188007 C387.595535,26.7188007 385.106537,27.2428149 382.789287,28.2921799 C380.474721,29.3402082 378.456687,30.7919412 376.736529,32.6433687 C375.01637,34.4974697 373.596769,36.6991311 372.475043,39.2510264 C371.350633,41.8029218 370.685112,44.5459754 370.474453,47.4828607 L409.525547,47.4828607 Z M391.316284,78 C387.806194,78 384.455775,77.3342882 381.263686,76.0068748 C378.070255,74.6794615 375.264599,72.7919412 372.84269,70.344314 C370.420781,67.8980235 368.51009,64.9611382 367.106591,61.5349947 C365.70175,58.1101881 365,54.2990547 365,50.1042681 L365,49.8943951 C365,46.0511792 365.648079,42.4325408 366.944236,39.0411534 C368.239051,35.6511028 370.024957,32.6955027 372.300612,30.1797002 C374.576267,27.6625609 377.253113,25.6707725 380.336518,24.2016614 C383.415897,22.7338871 386.778392,22 390.419976,22 C394.201106,22 397.597145,22.7178459 400.608094,24.1495274 C403.620384,25.5838824 406.193914,27.5582928 408.328682,30.0754321 C410.46345,32.5912346 412.109811,35.5454979 413.266423,38.9355486 C414.420352,42.3282727 415,46.0150864 415,50 L415,51.1014991 C415,51.3461281 414.963772,51.6776473 414.894,52.0973933 L370.474453,52.0973933 C370.685112,55.4366466 371.421748,58.3935835 372.68436,60.9668672 C373.946973,63.5414876 375.526245,65.7311181 377.420835,67.5397689 C379.315425,69.3497565 381.474345,70.7239568 383.894912,71.6623699 C386.315479,72.6021197 388.859489,73.0713263 391.526943,73.0713263 C395.737441,73.0713263 399.298519,72.2679271 402.210176,70.6584551 C405.121833,69.0516566 407.70073,67.0585315 409.946866,64.6817531 L413.525386,67.8271746 C410.78816,70.76406 407.684629,73.1929724 404.210766,75.1152487 C400.736904,77.0375251 396.437849,78 391.316284,78 Z" id="Fill-15" fill="#FFFFFF"></path>
                  <path d="M454.175706,78 C450.327665,78 446.741777,77.2487348 443.420718,75.7448678 C440.098321,74.2423374 437.217306,72.2318342 434.777672,69.7160317 C432.338037,67.1988924 430.430736,64.2620071 429.059779,60.9067125 C427.68481,57.5514179 427,53.9849136 427,50.209873 L427,50 C427,46.2249594 427.68481,42.6597918 429.059779,39.3031605 C430.430736,35.9478659 432.338037,32.9775613 434.777672,30.3895732 C437.217306,27.8042586 440.098321,25.7589993 443.420718,24.2551322 C446.741777,22.7526019 450.327665,22 454.175706,22 C456.694254,22 458.985424,22.2700277 461.049215,22.804736 C463.111669,23.3407811 465.017633,24.0733314 466.767108,25.0010503 C468.515245,25.930106 470.106892,26.9901652 471.540712,28.1825647 C472.974533,29.376301 474.322751,30.635539 475.581357,31.9629524 L471.90853,35.7379929 C469.599973,33.3625513 467.045312,31.2985773 464.24856,29.5514179 C461.449133,27.8042586 458.057186,26.9286737 454.07138,26.9286737 C450.992412,26.9286737 448.142159,27.5208632 445.519285,28.7039053 C442.895073,29.8869474 440.622629,31.5057768 438.699277,33.5590566 C436.774587,35.6123365 435.253828,38.0305548 434.135663,40.8150482 C433.014822,43.5982049 432.455739,46.5898978 432.455739,49.7914638 L432.455739,50 C432.455739,53.2015659 433.03221,56.2119736 434.187826,59.0312231 C435.342105,61.8477991 436.916364,64.303447 438.909267,66.3901461 C440.90217,68.478182 443.226778,70.1143894 445.887102,71.2960947 C448.544752,72.4804736 451.412393,73.0713263 454.490023,73.0713263 C458.268514,73.0713263 461.641736,72.215793 464.616378,70.5020529 C467.588344,68.7896496 470.193831,66.6735415 472.432837,64.1577389 L476,67.3031605 C473.271462,70.3804068 470.177781,72.9309653 466.714945,74.9588466 C463.252109,76.985391 459.071025,78 454.175706,78" id="Fill-17" fill="#FFFFFF"></path>
                  <path d="M511.473644,78 C508.105598,78 505.086433,77.4547009 502.421516,76.3667888 C499.753916,75.2788767 497.490213,73.7504274 495.630408,71.784127 C493.771944,69.8178266 492.368367,67.4808303 491.42102,64.7771673 C490.473673,62.0735043 490,59.1052503 490,55.8737485 L490,23 L495.158076,23 L495.158076,54.9255189 C495.158076,60.4752137 496.630087,64.9181929 499.579476,68.2544567 C502.526181,71.5907204 506.73691,73.2588523 512.210321,73.2588523 C514.805461,73.2588523 517.246288,72.7847375 519.527435,71.8365079 C521.805898,70.8882784 523.790496,69.570696 525.474519,67.8851038 C527.158543,66.1995116 528.474899,64.1808303 529.422246,61.8263736 C530.369592,59.4746032 530.843266,56.8931624 530.843266,54.0820513 L530.843266,23 L536,23 L536,76.7361416 L530.843266,76.7361416 L530.843266,66.7260073 C529.017007,69.8863248 526.561419,72.5577534 523.473819,74.7335775 C520.38622,76.9094017 516.38482,78 511.473644,78" id="Fill-19" fill="#FFFFFF"></path>
                  <path d="M556,22.8586817 L561.167385,22.8586817 L561.167385,38.2516557 C562.221295,35.8469686 563.556158,33.6168481 565.174663,31.5640005 C566.790479,29.5125061 568.61869,27.7600752 570.657952,26.3080611 C572.697214,24.8587534 574.928707,23.7612851 577.35512,23.0183626 C579.780188,22.274087 582.327585,21.9398395 585,22.0088542 L585,27.74113 L584.473045,27.74113 C581.378529,27.74113 578.426505,28.3257247 575.615631,29.4935609 C572.802067,30.6613971 570.323228,32.396236 568.180457,34.6953712 C566.034997,36.9958596 564.330459,39.8281668 563.065499,43.1882332 C561.799193,46.5496527 561.167385,50.4252991 561.167385,54.8124658 L561.167385,77 L556,77 L556,22.8586817 Z" id="Fill-21" fill="#FFFFFF"></path>
                  <mask id="mask-6" fill="white">
                      <use xlink:href="#path-5"></use>
                  </mask>
                  <g id="Clip-24"></g>
                  <path d="M598.590596,77 L603.410658,77 L603.410658,23.1269502 L598.590596,23.1269502 L598.590596,77 Z M598,9.07732634 L604,9.07732634 L604,2 L598,2 L598,9.07732634 Z" id="Fill-23" fill="#FFFFFF" mask="url(#mask-6)"></path>
                  <path d="M641.993373,78 C639.875438,78 637.896627,77.7187395 636.059643,77.1562185 C634.221308,76.5936974 632.616648,75.6960861 631.238909,74.4633845 C629.861171,73.2333745 628.783293,71.684423 628.006627,69.817876 C627.22861,67.9540204 626.840952,65.7537288 626.840952,63.2196927 L626.840952,27.9585062 L619,27.9585062 L619,23.2080296 L626.840952,23.2080296 L626.840952,6 L632.033135,6 L632.033135,23.2080296 L651,23.2080296 L651,27.9585062 L632.033135,27.9585062 L632.033135,62.6114164 C632.033135,66.4750477 633.039424,69.1786475 635.052003,70.722216 C637.067283,72.2657845 639.662024,73.0382416 642.841628,73.0382416 C644.182896,73.0382416 645.455278,72.9063586 646.656072,72.6385556 C647.856865,72.373444 649.233253,71.9078165 650.789287,71.243019 L650.789287,76.0998094 C649.375079,76.7336548 647.981132,77.2087025 646.603394,77.5249523 C645.225655,77.8412022 643.689882,78 641.993373,78" id="Fill-25" fill="#FFFFFF" mask="url(#mask-6)"></path>
                  <path d="M709.248762,23 L715,23 L691.461469,78.7029131 C689.046112,84.3282067 686.40266,88.2846049 683.527041,90.5721077 C680.651422,92.8555762 677.258517,94 673.355115,94 C671.294119,94 669.448998,93.8023146 667.815679,93.4082885 C666.18236,93.0115728 664.44314,92.4198614 662.598019,91.6277748 L664.409197,87.0366316 C665.827999,87.7399614 667.212858,88.2496401 668.561059,88.5670127 C669.90926,88.8830404 671.61318,89.0417266 673.674176,89.0417266 C675.094335,89.0417266 676.407236,88.8305932 677.615593,88.4096712 C678.822593,87.9860595 679.958992,87.267937 681.023433,86.251269 C682.089231,85.2305667 683.117014,83.9153534 684.112212,82.3015948 C685.106052,80.6838018 686.099892,78.7190507 687.09509,76.4006175 L661,23 L667.071657,23 L689.65029,71.1061444 L709.248762,23 Z" id="Fill-26" fill="#FFFFFF" mask="url(#mask-6)"></path>
                  <path d="M312.04133,171.499831 C312.04133,213.305052 264.368337,233.2394 257.5,235.871781 C250.63301,233.2394 202.95867,213.305052 202.95867,171.499831 L202.95867,126.095316 L257.5,107.104957 L312.04133,126.095316 L312.04133,171.499831 Z M315.338132,121.998404 L258.317467,102.139575 C257.788201,101.953475 257.211799,101.953475 256.682533,102.139575 L199.661868,121.998404 C198.670673,122.346331 198.005387,123.28088 198,124.332754 L198,171.499831 C198,219.883306 256.087277,240.663198 256.682533,240.861436 C257.211799,241.046188 257.788201,241.046188 258.317467,240.861436 C258.914069,240.663198 317,219.883306 317,171.499831 L317,124.332754 C316.99596,123.28088 316.330674,122.346331 315.338132,121.998404 Z" id="Fill-27" fill="#FFD637" mask="url(#mask-6)"></path>
                  <path d="M302.047343,133.251098 L302.047343,171.055308 C302.047343,203.239318 263.760197,220.297611 257.49933,222.847479 C251.238463,220.297611 212.952661,203.239318 212.952661,171.055308 L212.952661,133.251098 L257.49933,119.065441 L302.047343,133.251098 Z M256.757222,114.114986 L209.735514,128.967697 C208.662683,129.303913 207.951496,130.320633 208.002583,131.443597 L208.002583,171.055308 C208.002583,209.478156 254.653237,227.105327 256.633537,227.847694 C257.184741,228.050769 257.78972,228.050769 258.340924,227.847694 C260.345423,227.105327 306.997421,209.478156 306.997421,171.055308 L306.997421,131.443597 C307.048508,130.320633 306.335977,129.303913 305.264491,128.967697 L258.242783,114.114986 C257.760143,113.961671 257.241205,113.961671 256.757222,114.114986 Z" id="Fill-28" fill="#FFD637" mask="url(#mask-6)"></path>
                  <path d="M266.998778,151.999753 L266.998778,157.000123 L246.998506,157.000123 L246.998506,151.999753 C246.998506,146.47653 251.476057,141.999012 256.999321,141.999012 C262.521227,141.999012 266.998778,146.47653 266.998778,151.999753 Z M236.999049,186.99963 L276.998235,186.99963 L276.998235,161.999136 L236.999049,161.999136 L236.999049,186.99963 Z M241.999457,151.999753 L241.999457,157.000123 L234.498846,157.000123 C233.119048,157.000123 232,158.119163 232,159.498951 L232,189.499815 C232,190.879602 233.119048,192 234.498846,192 L279.499796,192 C280.880952,192 282,190.879602 282,189.499815 L282,159.498951 C282,158.119163 280.880952,157.000123 279.499796,157.000123 L271.999185,157.000123 L271.999185,151.999753 C271.999185,143.715598 265.283537,137 256.999321,137 C248.715104,137 241.999457,143.715598 241.999457,151.999753 Z" id="Fill-29" fill="#FFD637" mask="url(#mask-6)"></path>
                  <path d="M257.5,169 C256.118957,169 255,170.118957 255,171.5 L255,176.498642 C255,177.881043 256.118957,179 257.5,179 C258.881043,179 260,177.881043 260,176.498642 L260,171.5 C260,170.118957 258.881043,169 257.5,169" id="Fill-30" fill="#060000" mask="url(#mask-6)"></path>
                  <polygon id="Fill-31" fill="#FFFFFF" mask="url(#mask-6)" points="373.755825 134.968369 348 134.968369 348 130 405 130 405 134.968369 379.244175 134.968369 379.244175 204 373.755825 204"></polygon>
                  <path d="M417.590596,204 L422.410658,204 L422.410658,150.12695 L417.590596,150.12695 L417.590596,204 Z M417,136.077326 L423,136.077326 L423,129 L417,129 L417,136.077326 Z" id="Fill-32" fill="#FFFFFF" mask="url(#mask-6)"></path>
                  <path d="M470.106106,200.413192 C473.09341,200.413192 475.886185,199.884324 478.483071,198.829281 C481.078597,197.774237 483.33948,196.261649 485.260278,194.290171 C487.181076,192.320038 488.691052,189.90851 489.795647,187.058277 C490.897521,184.208044 491.448458,180.987739 491.448458,177.398707 L491.448458,177.187429 C491.448458,173.668374 490.879837,170.468254 489.742594,167.581687 C488.60399,164.69512 487.055925,162.249949 485.099758,160.243482 C483.142231,158.23836 480.866385,156.690784 478.269498,155.59806 C475.672612,154.508028 472.950574,153.961666 470.106106,153.961666 C467.258918,153.961666 464.504232,154.526868 461.835248,155.651889 C459.167624,156.778255 456.801995,158.360821 454.738362,160.402277 C452.674728,162.443732 451.020556,164.872755 449.777207,167.686653 C448.531137,170.501897 447.909462,173.634731 447.909462,177.082463 L447.909462,177.293741 C447.909462,180.742818 448.531137,183.8918 449.777207,186.742033 C451.020556,189.592266 452.674728,192.021289 454.738362,194.02641 C456.801995,196.031531 459.167624,197.599293 461.835248,198.724315 C464.504232,199.850681 467.258918,200.413192 470.106106,200.413192 Z M443,150.267667 L448.229141,150.267667 L448.229141,162.302432 C449.365024,160.543577 450.679111,158.8547 452.168682,157.2358 C453.659613,155.6169 455.309704,154.209278 457.120314,153.011588 C458.930925,151.81659 460.952388,150.847672 463.190145,150.108872 C465.426542,149.370073 467.892836,149 470.590387,149 C473.85656,149 477.066959,149.633834 480.227025,150.901501 C483.385732,152.167822 486.208434,153.998 488.693773,156.390688 C491.177751,158.783377 493.18289,161.722427 494.70919,165.205147 C496.23549,168.689214 497,172.61333 497,176.976151 L497,177.187429 C497,181.551595 496.23549,185.474366 494.70919,188.958432 C493.18289,192.442499 491.177751,195.397697 488.693773,197.82672 C486.208434,200.255743 483.385732,202.120909 480.227025,203.422219 C477.066959,204.72353 473.85656,205.376203 470.590387,205.376203 C467.892836,205.376203 465.407497,205.022279 463.135732,204.319814 C460.865326,203.617349 458.824819,202.667271 457.012848,201.468235 C455.202237,200.273237 453.569831,198.900604 452.115629,197.353027 C450.660067,195.804104 449.365024,194.185205 448.229141,192.494982 L448.229141,221 L443,221 L443,150.267667 Z" id="Fill-33" fill="#FFFFFF" mask="url(#mask-6)"></path>
                  <path d="M530.257259,205 C526.27984,205 522.305135,204.261917 518.329073,202.787099 C514.353011,201.312281 510.910439,199.409159 508,197.07504 L511.088269,192.954976 C514.069298,195.20963 517.192862,196.952475 520.458961,198.184857 C523.72506,199.41724 527.097043,200.032758 530.576267,200.032758 C534.267258,200.032758 537.373175,199.120929 539.895375,197.293232 C542.413502,195.465535 543.674602,192.969792 543.674602,189.80735 L543.674602,189.594545 C543.674602,188.04969 543.283647,186.714945 542.503096,185.588965 C541.721187,184.464332 540.655564,183.479773 539.308943,182.636635 C537.959607,181.79215 536.433798,181.089086 534.728802,180.528789 C533.025163,179.967146 531.215641,179.404156 529.298878,178.841166 C527.097043,178.208139 524.878919,177.540093 522.643148,176.835682 C520.406019,176.132618 518.399662,175.238299 516.625435,174.148684 C514.849849,173.05907 513.412277,171.706816 512.312717,170.08923 C511.2118,168.472991 510.66202,166.468854 510.66202,164.078166 L510.66202,163.866708 C510.66202,161.687479 511.104559,159.703545 511.993709,157.910866 C512.880144,156.116841 514.10595,154.553129 515.667053,153.218385 C517.226799,151.882294 519.109625,150.845207 521.311459,150.108471 C523.510578,149.369041 525.925537,149 528.552263,149 C531.817005,149 535.171341,149.540093 538.616627,150.618933 C542.059199,151.69912 545.128464,153.167204 547.827136,155.023185 L545.059233,159.354707 C542.572327,157.734427 539.895375,156.432007 537.018872,155.446101 C534.143727,154.460195 531.249578,153.965895 528.340496,153.965895 C524.574844,153.965895 521.577525,154.861561 519.341754,156.655587 C517.105983,158.448266 515.986061,160.678676 515.986061,163.349512 L515.986061,163.56097 C515.986061,165.037135 516.41231,166.319352 517.264808,167.408966 C518.117306,168.498581 519.234513,169.431959 520.619144,170.20506 C522.003774,170.976815 523.616462,171.66237 525.465351,172.260378 C527.310168,172.85704 529.191637,173.438886 531.1084,174.000529 C533.308877,174.634903 535.475416,175.319111 537.603947,176.057194 C539.733834,176.795276 541.651955,177.744817 543.354236,178.903122 C545.059233,180.06412 546.424858,181.452739 547.455187,183.068979 C548.484157,184.685218 549,186.688008 549,189.078695 L549,189.290153 C549,191.679494 548.519452,193.841214 547.56107,195.773967 C546.602688,197.708067 545.272357,199.360672 543.568718,200.730434 C541.86508,202.101544 539.87637,203.15614 537.603947,203.894223 C535.331523,204.630959 532.882628,205 530.257259,205" id="Fill-34" fill="#FFFFFF" mask="url(#mask-6)"></path>
              </g>
              <g id="Group-2" transform="translate(182.000000, 269.000000)">
                  <mask id="mask-8" fill="white">
                      <use xlink:href="#path-7"></use>
                  </mask>
                  <g id="Clip-1"></g>
                  <text id="from-Adirondack-Bank" mask="url(#mask-8)" font-family="Helvetica" font-size="34.3358" font-weight="normal" fill="#FFFFFF">
                      <tspan x="0" y="45">f</tspan>
                      <tspan x="9.53958506" y="45" letter-spacing="-0.7553876">r</tspan>
                      <tspan x="20.2182871" y="45">om </tspan>
                      <tspan x="75.5780584" y="45" letter-spacing="-0.858395">A</tspan>
                      <tspan x="97.6213737" y="45">di</tspan>
                      <tspan x="124.345624" y="45" letter-spacing="-0.7553876">r</tspan>
                      <tspan x="135.024326" y="45">ondack Bank</tspan>
                  </text>
              </g>
          </g>
      </g>
  </g>
</svg>