<svg viewBox="0 0 288 189" version="1.1" xmlns="http://www.w3.org/2000/svg" xmlns:xlink="http://www.w3.org/1999/xlink">
    <g id="Landing" stroke="none" stroke-width="1" fill="none" fill-rule="evenodd">
        <g id="Artboard" transform="translate(-377.000000, -2184.000000)">
            <g id="Group-6-Copy-3" transform="translate(297.000000, 2113.000000)">
                <g id="Group-18" transform="translate(80.000000, 71.000000)">
                    <g id="Group-17">
                        <path d="M218.467112,61.398364 L210.472367,61.398364 C211.31646,70.0558794 216.15662,74.5201959 224.489264,75.1276036 L224.489264,79.8135066 L227.808231,79.8135066 L227.808231,75.1276036 C239.01105,74.4107061 241.88514,66.7477231 241.88514,63.6038015 C241.88514,59.9085206 241.660745,53.7901259 230.682321,50.8117425 C229.669932,50.5393214 228.712336,50.315128 227.808231,50.0961484 L227.808231,40.3385212 C230.343118,40.3385212 232.423996,42.7094968 232.484009,45.6318319 L240.478754,45.6318319 C240.024744,38.0222904 234.510092,34.6033408 227.808231,33.8864433 L227.808231,29.6411064 L224.489264,29.6411064 L224.489264,33.8864433 C217.733913,34.273568 211.431267,38.1317802 211.431267,45.6839699 C211.431267,53.0184835 217.059421,55.1691761 222.68888,56.6577161 C223.416861,56.8245577 224.095267,56.9887924 224.489264,57.1543306 L224.489264,68.6781327 C221.056794,68.0146766 218.407099,65.4794662 218.467112,61.398364 Z M227.808231,58.0915112 C232.260918,59.3037197 233.890395,60.3516936 233.890395,63.2740287 C233.890395,66.8037715 230.568819,68.4018012 227.808231,68.6781327 L227.808231,58.0915112 Z M219.420793,44.9136309 C219.420793,41.8805026 221.955681,40.3385212 224.489264,40.3385212 L224.489264,49.324506 C220.888497,48.4981186 219.420793,47.3393515 219.420793,44.9136309 Z" id="Fill-1" fill="#006E53"></path>
                        <path d="M283.239421,0 L4.76188319,0 C2.13175812,0 0.00260925106,2.08421667 0,4.65722711 L0,123.578798 C0.00260925106,126.150505 2.13175812,128.237329 4.76188319,128.237329 L88.380552,128.237329 C88.7354102,125.033448 89.3968553,121.923416 90.2918284,118.90984 L9.52246176,118.90984 L9.52246176,9.32488183 L278.478843,9.32488183 L278.478843,118.90984 L197.708172,118.90984 C198.603145,121.923416 199.26459,125.033448 199.619448,128.237329 L283.239421,128.237329 C285.866937,128.237329 288,126.147898 288,123.573584 L288,4.66244091 C288,2.08682357 285.866937,0 283.239421,0" id="Fill-3" fill="#006E53"></path>
                        <path d="M30.1249777,40.1569506 L139.405631,40.1569506 C142.035756,40.1569506 144.166209,38.070127 144.166209,35.4945096 C144.166209,32.9162854 142.035756,30.8294618 139.405631,30.8294618 L30.1249777,30.8294618 C27.4948526,30.8294618 25.3643991,32.9162854 25.3643991,35.4945096 C25.3643991,38.070127 27.4948526,40.1569506 30.1249777,40.1569506" id="Fill-5" fill="#006E53"></path>
                        <path d="M30.1249777,61.9187013 L139.405631,61.9187013 C142.035756,61.9187013 144.166209,59.8292708 144.166209,57.2562604 C144.166209,54.680643 142.035756,52.5912125 139.405631,52.5912125 L30.1249777,52.5912125 C27.4948526,52.5912125 25.3643991,54.680643 25.3643991,57.2562604 C25.3643991,59.8292708 27.4948526,61.9187013 30.1249777,61.9187013" id="Fill-7" fill="#006E53"></path>
                        <path d="M30.6610483,97.5807042 C27.7347733,97.5807042 25.3642687,99.9034523 25.3642687,102.768436 C25.3642687,105.632115 27.7347733,107.956167 30.6610483,107.956167 L94.8786309,107.956167 C96.9634225,104.225693 99.5191839,100.793709 102.399797,97.652394 C102.161051,97.6198078 101.924913,97.5807042 101.678339,97.5807042 L30.6610483,97.5807042 Z" id="Fill-9" fill="#006E53"></path>
                        <path d="M266.018364,102.768696 C266.018364,99.9701889 263.488696,97.7008823 260.371945,97.7008823 L185.646909,97.7008823 C188.475337,100.795273 190.985436,104.169905 193.046745,107.833903 L260.371945,107.833903 C263.488696,107.833903 266.018364,105.564597 266.018364,102.768696" id="Fill-11" fill="#006E53"></path>
                        <path d="M193.046223,107.834164 C190.986219,104.170166 188.476119,100.795534 185.646387,97.701143 C175.39203,86.4849552 160.546696,79.374635 144.001435,79.374635 C127.478353,79.374635 112.652588,86.4641 102.399536,97.6516119 C99.5202276,100.79423 96.9644662,104.224911 94.8783699,107.956688 C92.9553519,111.397796 91.4315493,115.073526 90.2926112,118.909579 C89.3963335,121.924459 88.7361929,125.033188 88.3813348,128.237068 C88.164767,130.193546 88.035609,132.174791 88.035609,134.187317 C88.035609,164.413021 113.140518,189 144.001435,189 C174.858438,189 199.964652,164.413021 199.964652,134.187317 C199.964652,132.174791 199.836799,130.193546 199.620231,128.237068 C199.265373,125.033188 198.603927,121.924459 197.708954,118.909579 C196.554361,115.026601 195.001856,111.311769 193.046223,107.834164 M192.686146,134.187317 C192.686146,160.481816 170.848019,181.872735 144.001435,181.872735 C117.154851,181.872735 95.3141149,160.481816 95.3141149,134.187317 C95.3141149,132.168273 95.4850208,130.19094 95.7342043,128.237068 C96.146466,125.016243 96.8861886,121.899694 97.9233659,118.909579 C99.3232291,114.872794 101.222764,111.058899 103.615447,107.586508 C104.627837,106.114913 105.741987,104.718918 106.912236,103.371151 C115.850225,93.0686815 129.149578,86.5032035 144.001435,86.5032035 C157.881346,86.5032035 170.390096,92.2514183 179.266768,101.408155 C181.196309,103.39722 182.971904,105.529664 184.530932,107.821129 C186.851861,111.230955 188.707038,114.960125 190.076895,118.909579 C191.112768,121.899694 191.85249,125.016243 192.264752,128.237068 C192.51524,130.19094 192.686146,132.168273 192.686146,134.187317" id="Fill-13" fill="#6DBE4B"></path>
                        <path d="M165.255742,124.106826 L165.255742,118.90997 L165.255742,116.15187 C165.255742,104.672385 155.718929,95.3331653 144.000783,95.3331653 C132.280027,95.3331653 122.745824,104.672385 122.745824,116.15187 L122.745824,118.90997 L122.745824,124.106826 C120.02307,124.295826 117.725625,125.94078 116.595819,128.236155 C116.126154,129.191584 115.837831,130.244772 115.837831,131.37356 L115.837831,161.819547 C115.837831,165.83678 119.175064,169.105833 123.276806,169.105833 L164.724759,169.105833 C168.826502,169.105833 172.163734,165.83678 172.163734,161.819547 L172.163734,131.37356 C172.163734,130.244772 171.875412,129.191584 171.405747,128.236155 C170.275941,125.94078 167.978495,124.295826 165.255742,124.106826 Z M130.715781,116.15187 C130.715781,108.85646 136.551371,103.140831 144.000783,103.140831 C151.447585,103.140831 157.283175,108.85646 157.283175,116.15187 L157.283175,118.90997 L157.283175,124.087274 L130.715781,124.087274 L130.715781,118.90997 L130.715781,116.15187 Z M123.807789,161.298167 L164.191168,161.298167 L164.191168,131.893636 L123.807789,131.893636 L123.807789,161.298167 Z" id="Fill-15" fill="#6DBE4B"></path>
                    </g>
                </g>
            </g>
        </g>
    </g>
</svg>