<svg viewBox="0 0 197 197" version="1.1" xmlns="http://www.w3.org/2000/svg" xmlns:xlink="http://www.w3.org/1999/xlink">
    <g id="Landing" stroke="none" stroke-width="1" fill="none" fill-rule="evenodd">
        <g id="Artboard" transform="translate(-1381.000000, -2170.000000)">
            <g id="Group-6-Copy-4" transform="translate(1257.000000, 2113.000000)">
                <g id="Group-17" transform="translate(124.000000, 57.000000)">
                    <g id="Group-16">
                        <path d="M-6.54587163e-15,98.5000921 C-6.54587163e-15,44.1002564 44.1002151,0 98.5,0 C152.899785,0 197,44.1002564 197,98.5000921 C197,152.899928 152.899785,197.000184 98.5,197.000184 C44.1002151,197.000184 -6.54587163e-15,152.899928 -6.54587163e-15,98.5000921" id="Fill-3" fill="#FFD053"></path>
                        <path d="M149.904659,15 C159.740899,30.2749508 165.444219,48.4372734 165.444219,67.9247362 C165.444219,122.189316 121.223632,166.179924 66.6753629,166.179924 C47.7308091,166.179924 30.0333367,160.870174 15,151.669548 C32.5533651,178.931411 63.2703685,197 98.2292965,197 C152.779413,197 197,153.009392 197,98.7448119 C197,63.326261 178.15706,32.2893108 149.904659,15" id="Fill-6" fill="#FDC448"></path>
                        <path d="M12.8179317,108.481907 C12.8179317,58.0436345 53.821471,17.1549987 104.401483,17.1549987 C133.966765,17.1549987 160.255012,31.1280119 177,52.8088145 C161.184982,25.4313502 131.544047,7 97.5853961,7 C47.0053845,7 6,47.8886358 6,98.3287479 C6,119.284588 13.0836373,138.589941 24.9868787,154 C17.2463582,140.601069 12.8179317,125.05669 12.8179317,108.481907" id="Fill-8" fill="#FED679"></path>
                        <path d="M57.5535127,112.965213 C55.011826,110.467262 50.9381131,113.230317 52.2560247,116.557184 C59.5469925,134.983772 77.355412,148 98.1780468,148 C118.651823,148 136.214749,135.415033 143.727214,117.475713 C145.096809,114.202987 140.991717,111.370856 138.468488,113.844537 C124.028681,128.005192 93.3696997,148.156822 57.5535127,112.965213" id="Fill-10" fill="#2C2C2B"></path>
                        <path d="M70,81.0009037 C70,87.6285112 66.6412795,93 62.5,93 C58.3568165,93 55,87.6285112 55,81.0009037 C55,74.3732962 58.3568165,69 62.5,69 C66.6412795,69 70,74.3732962 70,81.0009037" id="Fill-12" fill="#2C2C2B"></path>
                        <path d="M142,81.0009037 C142,87.6285112 138.64128,93 134.5,93 C130.356816,93 127,87.6285112 127,81.0009037 C127,74.3732962 130.356816,69 134.5,69 C138.64128,69 142,74.3732962 142,81.0009037" id="Fill-14" fill="#2C2C2B"></path>
                    </g>
                </g>
            </g>
        </g>
    </g>
</svg>